<?xml version="1.0" encoding="UTF-8"?>
<svg width="150px" height="73px" viewBox="0 0 150 73" version="1.1" xmlns="http://www.w3.org/2000/svg" xmlns:xlink="http://www.w3.org/1999/xlink">
    <g id="banner_pattern" stroke-width="1">
        <g id="gift" transform="translate(32.483949, 23.967899) rotate(-24.000000) translate(-32.483949, -23.967899) translate(16.483949, 7.967899)" fill="#D7D4C2">
            <path d="M25.8,28.6 L25.8,16 C25.8,15.2268014 26.4268014,14.6 27.2,14.6 C27.9731986,14.6 28.6,15.2268014 28.6,16 L28.6,30 C28.6,30.7731986 27.9731986,31.4 27.2,31.4 L4.8,31.4 C4.02680135,31.4 3.4,30.7731986 3.4,30 L3.4,16 C3.4,15.2268014 4.02680135,14.6 4.8,14.6 C5.57319865,14.6 6.2,15.2268014 6.2,16 L6.2,28.6 L25.8,28.6 Z"></path>
            <path d="M3.4,10.4 L3.4,14.6 L28.6,14.6 L28.6,10.4 L3.4,10.4 Z M2,7.6 L30,7.6 C30.7731986,7.6 31.4,8.22680135 31.4,9 L31.4,16 C31.4,16.7731986 30.7731986,17.4 30,17.4 L2,17.4 C1.22680135,17.4 0.6,16.7731986 0.6,16 L0.6,9 C0.6,8.22680135 1.22680135,7.6 2,7.6 Z"></path>
            <path d="M17.4,30 C17.4,30.7731986 16.7731986,31.4 16,31.4 C15.2268014,31.4 14.6,30.7731986 14.6,30 L14.6,9 C14.6,8.22680135 15.2268014,7.6 16,7.6 C16.7731986,7.6 17.4,8.22680135 17.4,9 L17.4,30 Z"></path>
            <path d="M13.4607977,6.17468625 C12.4787632,4.38916893 11.242302,3.4 9.7,3.4 C8.54020203,3.4 7.6,4.34020203 7.6,5.5 C7.6,6.65979797 8.54020203,7.6 9.7,7.6 L14.1159598,7.6 C13.9288163,7.10989283 13.7106342,6.62893442 13.4607977,6.17468625 Z M16,10.4 L9.7,10.4 C6.99380473,10.4 4.8,8.20619527 4.8,5.5 C4.8,2.79380473 6.99380473,0.6 9.7,0.6 C12.445198,0.6 14.4899868,2.23583107 15.9142023,4.82531375 C16.3834742,5.67853543 16.7537399,6.58162252 17.0393666,7.48360161 C17.2117351,8.0279233 17.31961,8.45942279 17.3728129,8.72543741 C17.5460747,9.59174611 16.883465,10.4 16,10.4 Z"></path>
            <path d="M16,10.4 C15.116535,10.4 14.4539253,9.59174611 14.6271871,8.72543741 C14.68039,8.45942279 14.7882649,8.0279233 14.9606334,7.48360161 C15.2462601,6.58162252 15.6165258,5.67853543 16.0857977,4.82531375 C17.5100132,2.23583107 19.554802,0.6 22.3,0.6 C25.0061953,0.6 27.2,2.79380473 27.2,5.5 C27.2,8.20619527 25.0061953,10.4 22.3,10.4 L16,10.4 Z M22.3,7.6 C23.459798,7.6 24.4,6.65979797 24.4,5.5 C24.4,4.34020203 23.459798,3.4 22.3,3.4 C20.757698,3.4 19.5212368,4.38916893 18.5392023,6.17468625 C18.2893658,6.62893442 18.0711837,7.10989283 17.8840428,7.6 L22.3,7.6 Z"></path>
        </g>
        <g id="gift" transform="translate(99.483949, 46.967899) scale(-1, 1) rotate(-24.000000) translate(-99.483949, -46.967899) translate(83.483949, 30.967899)" fill="#D7D4C2">
            <path d="M25.8,28.6 L25.8,16 C25.8,15.2268014 26.4268014,14.6 27.2,14.6 C27.9731986,14.6 28.6,15.2268014 28.6,16 L28.6,30 C28.6,30.7731986 27.9731986,31.4 27.2,31.4 L4.8,31.4 C4.02680135,31.4 3.4,30.7731986 3.4,30 L3.4,16 C3.4,15.2268014 4.02680135,14.6 4.8,14.6 C5.57319865,14.6 6.2,15.2268014 6.2,16 L6.2,28.6 L25.8,28.6 Z"></path>
            <path d="M3.4,10.4 L3.4,14.6 L28.6,14.6 L28.6,10.4 L3.4,10.4 Z M2,7.6 L30,7.6 C30.7731986,7.6 31.4,8.22680135 31.4,9 L31.4,16 C31.4,16.7731986 30.7731986,17.4 30,17.4 L2,17.4 C1.22680135,17.4 0.6,16.7731986 0.6,16 L0.6,9 C0.6,8.22680135 1.22680135,7.6 2,7.6 Z"></path>
            <path d="M17.4,30 C17.4,30.7731986 16.7731986,31.4 16,31.4 C15.2268014,31.4 14.6,30.7731986 14.6,30 L14.6,9 C14.6,8.22680135 15.2268014,7.6 16,7.6 C16.7731986,7.6 17.4,8.22680135 17.4,9 L17.4,30 Z"></path>
            <path d="M13.4607977,6.17468625 C12.4787632,4.38916893 11.242302,3.4 9.7,3.4 C8.54020203,3.4 7.6,4.34020203 7.6,5.5 C7.6,6.65979797 8.54020203,7.6 9.7,7.6 L14.1159598,7.6 C13.9288163,7.10989283 13.7106342,6.62893442 13.4607977,6.17468625 Z M16,10.4 L9.7,10.4 C6.99380473,10.4 4.8,8.20619527 4.8,5.5 C4.8,2.79380473 6.99380473,0.6 9.7,0.6 C12.445198,0.6 14.4899868,2.23583107 15.9142023,4.82531375 C16.3834742,5.67853543 16.7537399,6.58162252 17.0393666,7.48360161 C17.2117351,8.0279233 17.31961,8.45942279 17.3728129,8.72543741 C17.5460747,9.59174611 16.883465,10.4 16,10.4 Z"></path>
            <path d="M16,10.4 C15.116535,10.4 14.4539253,9.59174611 14.6271871,8.72543741 C14.68039,8.45942279 14.7882649,8.0279233 14.9606334,7.48360161 C15.2462601,6.58162252 15.6165258,5.67853543 16.0857977,4.82531375 C17.5100132,2.23583107 19.554802,0.6 22.3,0.6 C25.0061953,0.6 27.2,2.79380473 27.2,5.5 C27.2,8.20619527 25.0061953,10.4 22.3,10.4 L16,10.4 Z M22.3,7.6 C23.459798,7.6 24.4,6.65979797 24.4,5.5 C24.4,4.34020203 23.459798,3.4 22.3,3.4 C20.757698,3.4 19.5212368,4.38916893 18.5392023,6.17468625 C18.2893658,6.62893442 18.0711837,7.10989283 17.8840428,7.6 L22.3,7.6 Z"></path>
        </g>
    </g>
</svg>
