<svg xmlns="http://www.w3.org/2000/svg" viewBox="0 0 390.74 32.58"><defs><style>.cls-1{fill:#B8F0EC;}</style></defs><title>hero_divider</title><g id="Layer_2" data-name="Layer 2"><g id="Layer_1-2" data-name="Layer 1"><path class="cls-1" d="M30.82,11,27.28,12.1a3.34,3.34,0,0,1,1-2.76.7.7,0,0,0-.6-1.26l-.11,0-.09.07a4.71,4.71,0,0,0-1.54,4.35l-2.59.84A6.32,6.32,0,0,1,24.4,8.57a.69.69,0,0,0-.13-1,.7.7,0,0,0-1,.12A7.69,7.69,0,0,0,22,13.81L18.33,15a3,3,0,0,0-1.84-1.24V10a7.72,7.72,0,0,0,5.41-3.1.7.7,0,0,0-.19-1,.7.7,0,0,0-1,.18,6.36,6.36,0,0,1-4.25,2.49V5.85a4.55,4.55,0,0,0,3.77-3.24.7.7,0,1,0-1.37-.25,3.14,3.14,0,0,1-2.4,2.05V.7a.7.7,0,0,0-1.4,0V4.42a3.32,3.32,0,0,1-2.32-1.79.7.7,0,0,0-.68-.52.71.71,0,0,0-.7.7v.12l0,.11a4.74,4.74,0,0,0,3.66,2.81V8.57a6.33,6.33,0,0,1-4.25-2.5.7.7,0,0,0-1-.18.69.69,0,0,0-.18,1A7.63,7.63,0,0,0,15.09,10v3.8a3.1,3.1,0,0,0-2,1.46l-3.38-1.1A7.72,7.72,0,0,0,8.46,8a.7.7,0,1,0-1.11.85A6.37,6.37,0,0,1,8.4,13.69l-2.58-.83A4.59,4.59,0,0,0,3.9,8.26.7.7,0,0,0,3.24,9.5a3.15,3.15,0,0,1,1.21,2.91L.92,11.26a.7.7,0,1,0-.44,1.33L4,13.74A3.34,3.34,0,0,1,1.6,15.4a.69.69,0,0,0-.7.48.7.7,0,0,0,.45.88l.11,0h.12a4.74,4.74,0,0,0,3.8-2.61L8,15a6.34,6.34,0,0,1-3.69,3.26.7.7,0,0,0,.4,1.35A7.72,7.72,0,0,0,9.3,15.46l3.4,1.1a2,2,0,0,0,0,.24,3.11,3.11,0,0,0,.47,1.63l-2.25,3.11a7.68,7.68,0,0,0-6.19-.68.7.7,0,1,0,.46,1.32,6.35,6.35,0,0,1,4.91.49l-1.6,2.19c-1.52-.75-3.71-.79-5,.41a.7.7,0,1,0,1,1A3.17,3.17,0,0,1,7.63,26L5.44,29a.7.7,0,0,0,1.13.83l2.19-3a3.35,3.35,0,0,1,.83,2.81.69.69,0,0,0,.24.82.71.71,0,0,0,1-.16l.07-.09,0-.11A4.74,4.74,0,0,0,9.6,25.69l1.6-2.2a6.31,6.31,0,0,1,2,4.51.7.7,0,1,0,1.4.05A7.65,7.65,0,0,0,12,22.36l2.12-2.92a3.09,3.09,0,0,0,1.65.48,3.05,3.05,0,0,0,1.5-.4l2.08,2.86a7.71,7.71,0,0,0-2.55,5.69.7.7,0,1,0,1.4,0,6.36,6.36,0,0,1,2-4.51l1.59,2.19c-1.18,1.21-1.9,3.28-1.15,4.84a.7.7,0,0,0,1.27-.6,3.14,3.14,0,0,1,.73-3.07l2.18,3a.71.71,0,0,0,1,.16.7.7,0,0,0,.15-1l-2.18-3a3.35,3.35,0,0,1,2.93.08.68.68,0,0,0,.85,0,.7.7,0,0,0,.15-1l-.07-.09L27.54,25a4.73,4.73,0,0,0-4.61-.12l-1.6-2.2a6.37,6.37,0,0,1,4.9-.48.7.7,0,1,0,.47-1.31,7.62,7.62,0,0,0-6.19.66l-2.17-3a3,3,0,0,0,.57-1.78,2.63,2.63,0,0,0-.05-.49l3.58-1.17a7.74,7.74,0,0,0,4.62,4.19A.7.7,0,1,0,27.45,18a6.37,6.37,0,0,1-3.68-3.27l2.58-.84a4.59,4.59,0,0,0,4.26,2.59.7.7,0,1,0-.19-1.39,3.17,3.17,0,0,1-2.7-1.64l3.54-1.15a.72.72,0,0,0,.45-.88A.71.71,0,0,0,30.82,11Zm-15,7.57a1.72,1.72,0,1,1,1.72-1.72A1.72,1.72,0,0,1,15.79,18.52Z"/><path class="cls-1" d="M87.69,11.33a2.1,2.1,0,1,0-3.1-1.44l-1.76,1a1.66,1.66,0,0,1,.26-1.11.72.72,0,0,0,0-.76h0A.69.69,0,0,0,82,9a3.08,3.08,0,0,0-.4,2.64l-1.15.66a1.73,1.73,0,0,1,.27-1.11.72.72,0,0,0,0-.76h0a.7.7,0,0,0-1.19,0,3.12,3.12,0,0,0-.4,2.64l-3.88,2.25V10.76a3.13,3.13,0,0,0,2.09-1.67.69.69,0,0,0-.62-1h0a.7.7,0,0,0-.63.41,1.79,1.79,0,0,1-.84.79V8a3.13,3.13,0,0,0,2.09-1.67.69.69,0,0,0-.62-1h0a.7.7,0,0,0-.63.41,1.79,1.79,0,0,1-.84.79v-2a2.1,2.1,0,1,0-1.4,0v2A1.79,1.79,0,0,1,73,5.69a.7.7,0,0,0-.63-.41h0a.69.69,0,0,0-.62,1A3.13,3.13,0,0,0,73.84,8V9.28A1.79,1.79,0,0,1,73,8.49a.7.7,0,0,0-.63-.41h0a.69.69,0,0,0-.62,1,3.13,3.13,0,0,0,2.09,1.67v4.48L69.92,13a3.12,3.12,0,0,0-.4-2.64.7.7,0,0,0-1.19,0h0a.72.72,0,0,0,0,.76,1.75,1.75,0,0,1,.27,1.12l-1.15-.67a3.08,3.08,0,0,0-.4-2.64.69.69,0,0,0-1.18,0h0a.72.72,0,0,0,0,.76,1.69,1.69,0,0,1,.26,1.12l-1.76-1a2.09,2.09,0,1,0-3.1,1.44,2.08,2.08,0,0,0,2.4-.23l1.76,1a1.72,1.72,0,0,1-1.1.33.72.72,0,0,0-.68.34h0a.7.7,0,0,0,.57,1,3.08,3.08,0,0,0,2.49-1l1.15.66a1.76,1.76,0,0,1-1.1.33.71.71,0,0,0-.68.34h0a.7.7,0,0,0,.57,1,3.1,3.1,0,0,0,2.49-1l3.88,2.24-3.92,2.26a3.1,3.1,0,0,0-2.49-1,.7.7,0,0,0-.57,1h0a.71.71,0,0,0,.68.34,1.76,1.76,0,0,1,1.1.33l-1.15.66a3.08,3.08,0,0,0-2.49-1,.7.7,0,0,0-.57,1h0a.69.69,0,0,0,.67.34,1.72,1.72,0,0,1,1.1.33l-1.76,1a2.1,2.1,0,1,0,.7,1.21l1.76-1a1.66,1.66,0,0,1-.26,1.11.72.72,0,0,0,0,.76h0a.69.69,0,0,0,1.18,0,3.08,3.08,0,0,0,.4-2.64l1.15-.66a1.73,1.73,0,0,1-.27,1.11.72.72,0,0,0,0,.76h0a.7.7,0,0,0,1.19,0,3.12,3.12,0,0,0,.4-2.64l3.88-2.25v4.53a3.13,3.13,0,0,0-2.09,1.67.7.7,0,0,0,.62,1h0a.71.71,0,0,0,.63-.42,1.79,1.79,0,0,1,.84-.79V25a3.13,3.13,0,0,0-2.09,1.67.7.7,0,0,0,.62,1h0a.71.71,0,0,0,.63-.42,1.79,1.79,0,0,1,.84-.79v2a2.1,2.1,0,1,0,1.4,0v-2a1.79,1.79,0,0,1,.84.79.71.71,0,0,0,.63.42h0a.7.7,0,0,0,.62-1A3.13,3.13,0,0,0,75.16,25V23.67a1.79,1.79,0,0,1,.84.79.71.71,0,0,0,.63.42h0a.7.7,0,0,0,.62-1,3.13,3.13,0,0,0-2.09-1.67V17.71L79.08,20a3.12,3.12,0,0,0,.4,2.64.7.7,0,0,0,1.19,0h0a.72.72,0,0,0,0-.76,1.74,1.74,0,0,1-.27-1.11l1.15.66a3.08,3.08,0,0,0,.4,2.64.69.69,0,0,0,1.18,0h0a.72.72,0,0,0,0-.76,1.67,1.67,0,0,1-.26-1.11l1.76,1a2.1,2.1,0,1,0,.7-1.21l-1.76-1a1.72,1.72,0,0,1,1.1-.33.69.69,0,0,0,.67-.34h0a.7.7,0,0,0-.57-1,3.08,3.08,0,0,0-2.49,1l-1.15-.66a1.76,1.76,0,0,1,1.1-.33.71.71,0,0,0,.68-.34h0a.7.7,0,0,0-.57-1,3.1,3.1,0,0,0-2.49,1L75.9,16.52l3.92-2.26a3.1,3.1,0,0,0,2.49,1,.7.7,0,0,0,.57-1h0a.71.71,0,0,0-.68-.34,1.76,1.76,0,0,1-1.1-.33l1.15-.66a3.08,3.08,0,0,0,2.49,1,.7.7,0,0,0,.57-1h0a.69.69,0,0,0-.67-.34,1.72,1.72,0,0,1-1.1-.33l1.76-1A2.09,2.09,0,0,0,87.69,11.33ZM86.29,8.9a.7.7,0,0,1,.7,1.22.7.7,0,0,1-.7-1.22ZM63,9.79a.7.7,0,1,1-1.21-.7.7.7,0,1,1,1.21.7Zm-.29,14.26a.7.7,0,1,1-.7-1.22.7.7,0,0,1,1,.26A.71.71,0,0,1,62.71,24.05Zm12.45,6.43a.7.7,0,1,1-.7-.7A.7.7,0,0,1,75.16,30.48Zm-.62-27.3a.7.7,0,1,1,.7-.7A.7.7,0,0,1,74.54,3.18ZM86,23.16a.7.7,0,1,1,1.21.7.7.7,0,1,1-1.21-.7Z"/><path class="cls-1" d="M151.82,11l-3.54,1.15a3.34,3.34,0,0,1,1-2.76.7.7,0,0,0-.6-1.26l-.11,0-.09.07a4.71,4.71,0,0,0-1.54,4.35l-2.59.84a6.32,6.32,0,0,1,1.06-4.81.69.69,0,0,0-.13-1,.7.7,0,0,0-1,.12,7.69,7.69,0,0,0-1.28,6.1L139.33,15a3,3,0,0,0-1.84-1.24V10a7.72,7.72,0,0,0,5.41-3.1.7.7,0,0,0-.19-1,.7.7,0,0,0-1,.18,6.36,6.36,0,0,1-4.25,2.49V5.85a4.55,4.55,0,0,0,3.77-3.24.7.7,0,0,0-1.37-.25,3.14,3.14,0,0,1-2.4,2.05V.7a.7.7,0,1,0-1.4,0V4.42a3.32,3.32,0,0,1-2.32-1.79.7.7,0,0,0-.68-.52.71.71,0,0,0-.7.7v.12l0,.11a4.74,4.74,0,0,0,3.66,2.81V8.57a6.33,6.33,0,0,1-4.25-2.5.7.7,0,0,0-1-.18.69.69,0,0,0-.18,1,7.63,7.63,0,0,0,5.4,3.11v3.8a3.1,3.1,0,0,0-2,1.46l-3.38-1.1A7.72,7.72,0,0,0,129.46,8a.7.7,0,1,0-1.11.85,6.37,6.37,0,0,1,1.05,4.81l-2.58-.83a4.59,4.59,0,0,0-1.92-4.6.7.7,0,1,0-.66,1.24,3.15,3.15,0,0,1,1.21,2.91l-3.53-1.15a.7.7,0,1,0-.44,1.33L125,13.74a3.34,3.34,0,0,1-2.42,1.66.69.69,0,0,0-.7.48.7.7,0,0,0,.45.88l.11,0h.12a4.74,4.74,0,0,0,3.8-2.61L129,15a6.34,6.34,0,0,1-3.69,3.26.7.7,0,0,0,.4,1.35,7.72,7.72,0,0,0,4.62-4.18l3.4,1.1a2,2,0,0,0,0,.24,3.11,3.11,0,0,0,.47,1.63l-2.25,3.11a7.68,7.68,0,0,0-6.19-.68.7.7,0,1,0,.46,1.32,6.35,6.35,0,0,1,4.91.49l-1.6,2.19c-1.52-.75-3.71-.79-5,.41a.7.7,0,1,0,1,1,3.17,3.17,0,0,1,3.15-.25l-2.19,3a.7.7,0,0,0,1.13.83l2.19-3a3.35,3.35,0,0,1,.83,2.81.69.69,0,0,0,.24.82.71.71,0,0,0,1-.16l.07-.09,0-.11a4.74,4.74,0,0,0-1.31-4.43l1.6-2.2a6.31,6.31,0,0,1,2,4.51.7.7,0,1,0,1.4.05A7.65,7.65,0,0,0,133,22.36l2.12-2.92a3.09,3.09,0,0,0,1.65.48,3.05,3.05,0,0,0,1.5-.4l2.08,2.86a7.71,7.71,0,0,0-2.55,5.69.7.7,0,0,0,1.4,0,6.36,6.36,0,0,1,2-4.51l1.59,2.19c-1.18,1.21-1.9,3.28-1.15,4.84a.7.7,0,0,0,1.27-.6,3.14,3.14,0,0,1,.73-3.07l2.18,3a.71.71,0,0,0,1,.16.7.7,0,0,0,.15-1l-2.18-3a3.35,3.35,0,0,1,2.93.08.68.68,0,0,0,.85,0,.7.7,0,0,0,.15-1l-.07-.09-.09-.07a4.73,4.73,0,0,0-4.61-.12l-1.6-2.2a6.37,6.37,0,0,1,4.9-.48.7.7,0,1,0,.47-1.31,7.62,7.62,0,0,0-6.19.66l-2.17-3a3,3,0,0,0,.57-1.78,2.63,2.63,0,0,0,0-.49l3.58-1.17a7.74,7.74,0,0,0,4.62,4.19.7.7,0,0,0,.39-1.35,6.37,6.37,0,0,1-3.68-3.27l2.58-.84a4.59,4.59,0,0,0,4.26,2.59.7.7,0,1,0-.19-1.39,3.17,3.17,0,0,1-2.7-1.64l3.54-1.15a.72.72,0,0,0,.45-.88A.71.71,0,0,0,151.82,11Zm-15,7.57a1.72,1.72,0,1,1,1.72-1.72A1.72,1.72,0,0,1,136.79,18.52Z"/><path class="cls-1" d="M208.69,11.33a2.1,2.1,0,1,0-3.1-1.44l-1.76,1a1.66,1.66,0,0,1,.26-1.11.72.72,0,0,0,0-.76h0A.69.69,0,0,0,203,9a3.08,3.08,0,0,0-.4,2.64l-1.15.66a1.73,1.73,0,0,1,.27-1.11.72.72,0,0,0,0-.76h0a.7.7,0,0,0-1.19,0,3.12,3.12,0,0,0-.4,2.64l-3.88,2.25V10.76a3.13,3.13,0,0,0,2.09-1.67.69.69,0,0,0-.62-1h0a.7.7,0,0,0-.63.41,1.79,1.79,0,0,1-.84.79V8a3.13,3.13,0,0,0,2.09-1.67.69.69,0,0,0-.62-1h0a.7.7,0,0,0-.63.41,1.79,1.79,0,0,1-.84.79v-2a2.1,2.1,0,1,0-1.4,0v2a1.79,1.79,0,0,1-.84-.79.7.7,0,0,0-.63-.41h0a.69.69,0,0,0-.62,1A3.13,3.13,0,0,0,194.84,8V9.28a1.79,1.79,0,0,1-.84-.79.7.7,0,0,0-.63-.41h0a.69.69,0,0,0-.62,1,3.13,3.13,0,0,0,2.09,1.67v4.48L190.92,13a3.12,3.12,0,0,0-.4-2.64.7.7,0,0,0-1.19,0h0a.72.72,0,0,0,0,.76,1.75,1.75,0,0,1,.27,1.12l-1.15-.67a3.08,3.08,0,0,0-.4-2.64.69.69,0,0,0-1.18,0h0a.72.72,0,0,0,0,.76,1.69,1.69,0,0,1,.26,1.12l-1.76-1a2.09,2.09,0,1,0-3.1,1.44,2.08,2.08,0,0,0,2.4-.23l1.76,1a1.72,1.72,0,0,1-1.1.33.72.72,0,0,0-.68.34h0a.7.7,0,0,0,.57,1,3.08,3.08,0,0,0,2.49-1l1.15.66a1.76,1.76,0,0,1-1.1.33.71.71,0,0,0-.68.34h0a.7.7,0,0,0,.57,1,3.1,3.1,0,0,0,2.49-1l3.88,2.24-3.92,2.26a3.1,3.1,0,0,0-2.49-1,.7.7,0,0,0-.57,1h0a.71.71,0,0,0,.68.34,1.76,1.76,0,0,1,1.1.33l-1.15.66a3.08,3.08,0,0,0-2.49-1,.7.7,0,0,0-.57,1h0a.69.69,0,0,0,.67.34,1.72,1.72,0,0,1,1.1.33l-1.76,1a2.1,2.1,0,1,0,.7,1.21l1.76-1a1.66,1.66,0,0,1-.26,1.11.72.72,0,0,0,0,.76h0a.69.69,0,0,0,1.18,0,3.08,3.08,0,0,0,.4-2.64l1.15-.66a1.73,1.73,0,0,1-.27,1.11.72.72,0,0,0,0,.76h0a.7.7,0,0,0,1.19,0,3.12,3.12,0,0,0,.4-2.64l3.88-2.25v4.53a3.13,3.13,0,0,0-2.09,1.67.7.7,0,0,0,.62,1h0a.71.71,0,0,0,.63-.42,1.79,1.79,0,0,1,.84-.79V25a3.13,3.13,0,0,0-2.09,1.67.7.7,0,0,0,.62,1h0a.71.71,0,0,0,.63-.42,1.79,1.79,0,0,1,.84-.79v2a2.1,2.1,0,1,0,1.4,0v-2a1.79,1.79,0,0,1,.84.79.71.71,0,0,0,.63.42h0a.7.7,0,0,0,.62-1A3.13,3.13,0,0,0,196.16,25V23.67a1.79,1.79,0,0,1,.84.79.71.71,0,0,0,.63.42h0a.7.7,0,0,0,.62-1,3.13,3.13,0,0,0-2.09-1.67V17.71L200.08,20a3.12,3.12,0,0,0,.4,2.64.7.7,0,0,0,1.19,0h0a.72.72,0,0,0,0-.76,1.74,1.74,0,0,1-.27-1.11l1.15.66a3.08,3.08,0,0,0,.4,2.64.69.69,0,0,0,1.18,0h0a.72.72,0,0,0,0-.76,1.67,1.67,0,0,1-.26-1.11l1.76,1a2.1,2.1,0,1,0,.7-1.21l-1.76-1a1.72,1.72,0,0,1,1.1-.33.69.69,0,0,0,.67-.34h0a.7.7,0,0,0-.57-1,3.08,3.08,0,0,0-2.49,1l-1.15-.66a1.76,1.76,0,0,1,1.1-.33.71.71,0,0,0,.68-.34h0a.7.7,0,0,0-.57-1,3.1,3.1,0,0,0-2.49,1l-3.88-2.24,3.92-2.26a3.1,3.1,0,0,0,2.49,1,.7.7,0,0,0,.57-1h0a.71.71,0,0,0-.68-.34,1.76,1.76,0,0,1-1.1-.33l1.15-.66a3.08,3.08,0,0,0,2.49,1,.7.7,0,0,0,.57-1h0a.69.69,0,0,0-.67-.34,1.72,1.72,0,0,1-1.1-.33l1.76-1A2.09,2.09,0,0,0,208.69,11.33Zm-1.4-2.43a.7.7,0,0,1,.7,1.22.7.7,0,0,1-.7-1.22ZM184,9.79a.7.7,0,1,1-1.21-.7.7.7,0,1,1,1.21.7Zm-.29,14.26a.7.7,0,1,1-.7-1.22.7.7,0,0,1,1,.26A.71.71,0,0,1,183.71,24.05Zm12.45,6.43a.7.7,0,1,1-.7-.7A.7.7,0,0,1,196.16,30.48Zm-.62-27.3a.7.7,0,1,1,.7-.7A.7.7,0,0,1,195.54,3.18Zm11.46,20a.7.7,0,1,1,1.21.7.7.7,0,1,1-1.21-.7Z"/><path class="cls-1" d="M269.82,11l-3.54,1.15a3.34,3.34,0,0,1,1-2.76.7.7,0,0,0-.6-1.26l-.11,0-.09.07a4.71,4.71,0,0,0-1.54,4.35l-2.59.84a6.32,6.32,0,0,1,1.06-4.81.69.69,0,0,0-.13-1,.7.7,0,0,0-1,.12,7.69,7.69,0,0,0-1.28,6.1L257.33,15a3,3,0,0,0-1.84-1.24V10a7.72,7.72,0,0,0,5.41-3.1.7.7,0,0,0-.19-1,.7.7,0,0,0-1,.18,6.36,6.36,0,0,1-4.25,2.49V5.85a4.55,4.55,0,0,0,3.77-3.24.7.7,0,1,0-1.37-.25,3.14,3.14,0,0,1-2.4,2.05V.7a.7.7,0,1,0-1.4,0V4.42a3.32,3.32,0,0,1-2.32-1.79.7.7,0,0,0-.68-.52.71.71,0,0,0-.7.7v.12l0,.11a4.74,4.74,0,0,0,3.66,2.81V8.57a6.33,6.33,0,0,1-4.25-2.5.7.7,0,0,0-1-.18.69.69,0,0,0-.18,1,7.63,7.63,0,0,0,5.4,3.11v3.8a3.1,3.1,0,0,0-2,1.46l-3.38-1.1A7.72,7.72,0,0,0,247.46,8a.7.7,0,1,0-1.11.85,6.37,6.37,0,0,1,1.05,4.81l-2.58-.83a4.59,4.59,0,0,0-1.92-4.6.7.7,0,1,0-.66,1.24,3.15,3.15,0,0,1,1.21,2.91l-3.53-1.15a.7.7,0,1,0-.44,1.33L243,13.74a3.34,3.34,0,0,1-2.42,1.66.69.69,0,0,0-.7.48.7.7,0,0,0,.45.88l.11,0h.12a4.74,4.74,0,0,0,3.8-2.61L247,15a6.34,6.34,0,0,1-3.69,3.26.7.7,0,0,0,.4,1.35,7.72,7.72,0,0,0,4.62-4.18l3.4,1.1a2,2,0,0,0,0,.24,3.11,3.11,0,0,0,.47,1.63l-2.25,3.11a7.68,7.68,0,0,0-6.19-.68.7.7,0,1,0,.46,1.32,6.35,6.35,0,0,1,4.91.49l-1.6,2.19c-1.52-.75-3.71-.79-5,.41a.7.7,0,0,0,1,1,3.17,3.17,0,0,1,3.15-.25l-2.19,3a.7.7,0,0,0,1.13.83l2.19-3a3.35,3.35,0,0,1,.83,2.81.69.69,0,0,0,.24.82.71.71,0,0,0,1-.16l.07-.09,0-.11a4.74,4.74,0,0,0-1.31-4.43l1.6-2.2a6.31,6.31,0,0,1,2,4.51.7.7,0,1,0,1.4.05A7.65,7.65,0,0,0,251,22.36l2.12-2.92a3.09,3.09,0,0,0,1.65.48,3.05,3.05,0,0,0,1.5-.4l2.08,2.86a7.71,7.71,0,0,0-2.55,5.69.7.7,0,0,0,1.4,0,6.36,6.36,0,0,1,2-4.51l1.59,2.19c-1.18,1.21-1.9,3.28-1.15,4.84a.7.7,0,0,0,1.27-.6,3.14,3.14,0,0,1,.73-3.07l2.18,3a.71.71,0,0,0,1,.16.7.7,0,0,0,.15-1l-2.18-3a3.35,3.35,0,0,1,2.93.08.68.68,0,0,0,.85,0,.7.7,0,0,0,.15-1l-.07-.09-.09-.07a4.73,4.73,0,0,0-4.61-.12l-1.6-2.2a6.37,6.37,0,0,1,4.9-.48.7.7,0,1,0,.47-1.31,7.62,7.62,0,0,0-6.19.66l-2.17-3a3,3,0,0,0,.57-1.78,2.63,2.63,0,0,0-.05-.49l3.58-1.17a7.74,7.74,0,0,0,4.62,4.19.7.7,0,1,0,.39-1.35,6.37,6.37,0,0,1-3.68-3.27l2.58-.84a4.59,4.59,0,0,0,4.26,2.59.7.7,0,1,0-.19-1.39,3.17,3.17,0,0,1-2.7-1.64l3.54-1.15a.72.72,0,0,0,.45-.88A.71.71,0,0,0,269.82,11Zm-15,7.57a1.72,1.72,0,1,1,1.72-1.72A1.72,1.72,0,0,1,254.79,18.52Z"/><path class="cls-1" d="M327.69,11.33a2.1,2.1,0,1,0-3.1-1.44l-1.76,1a1.66,1.66,0,0,1,.26-1.11.72.72,0,0,0,0-.76h0A.69.69,0,0,0,322,9a3.08,3.08,0,0,0-.4,2.64l-1.15.66a1.73,1.73,0,0,1,.27-1.11.72.72,0,0,0,0-.76h0a.7.7,0,0,0-1.19,0,3.12,3.12,0,0,0-.4,2.64l-3.88,2.25V10.76a3.13,3.13,0,0,0,2.09-1.67.69.69,0,0,0-.62-1h0a.7.7,0,0,0-.63.41,1.79,1.79,0,0,1-.84.79V8a3.13,3.13,0,0,0,2.09-1.67.69.69,0,0,0-.62-1h0a.7.7,0,0,0-.63.41,1.79,1.79,0,0,1-.84.79v-2a2.1,2.1,0,1,0-1.4,0v2a1.79,1.79,0,0,1-.84-.79.7.7,0,0,0-.63-.41h0a.69.69,0,0,0-.62,1A3.13,3.13,0,0,0,313.84,8V9.28a1.79,1.79,0,0,1-.84-.79.7.7,0,0,0-.63-.41h0a.69.69,0,0,0-.62,1,3.13,3.13,0,0,0,2.09,1.67v4.48L309.92,13a3.12,3.12,0,0,0-.4-2.64.7.7,0,0,0-1.19,0h0a.72.72,0,0,0,0,.76,1.75,1.75,0,0,1,.27,1.12l-1.15-.67a3.08,3.08,0,0,0-.4-2.64.69.69,0,0,0-1.18,0h0a.72.72,0,0,0,0,.76,1.69,1.69,0,0,1,.26,1.12l-1.76-1a2.09,2.09,0,1,0-3.1,1.44,2.08,2.08,0,0,0,2.4-.23l1.76,1a1.72,1.72,0,0,1-1.1.33.72.72,0,0,0-.68.34h0a.7.7,0,0,0,.57,1,3.08,3.08,0,0,0,2.49-1l1.15.66a1.76,1.76,0,0,1-1.1.33.71.71,0,0,0-.68.34h0a.7.7,0,0,0,.57,1,3.1,3.1,0,0,0,2.49-1l3.88,2.24-3.92,2.26a3.1,3.1,0,0,0-2.49-1,.7.7,0,0,0-.57,1h0a.71.71,0,0,0,.68.34,1.76,1.76,0,0,1,1.1.33l-1.15.66a3.08,3.08,0,0,0-2.49-1,.7.7,0,0,0-.57,1h0a.69.69,0,0,0,.67.34,1.72,1.72,0,0,1,1.1.33l-1.76,1a2.1,2.1,0,1,0,.7,1.21l1.76-1a1.66,1.66,0,0,1-.26,1.11.72.72,0,0,0,0,.76h0a.69.69,0,0,0,1.18,0,3.08,3.08,0,0,0,.4-2.64l1.15-.66a1.73,1.73,0,0,1-.27,1.11.72.72,0,0,0,0,.76h0a.7.7,0,0,0,1.19,0,3.12,3.12,0,0,0,.4-2.64l3.88-2.25v4.53a3.13,3.13,0,0,0-2.09,1.67.7.7,0,0,0,.62,1h0a.71.71,0,0,0,.63-.42,1.79,1.79,0,0,1,.84-.79V25a3.13,3.13,0,0,0-2.09,1.67.7.7,0,0,0,.62,1h0a.71.71,0,0,0,.63-.42,1.79,1.79,0,0,1,.84-.79v2a2.1,2.1,0,1,0,1.4,0v-2a1.79,1.79,0,0,1,.84.79.71.71,0,0,0,.63.42h0a.7.7,0,0,0,.62-1A3.13,3.13,0,0,0,315.16,25V23.67a1.79,1.79,0,0,1,.84.79.71.71,0,0,0,.63.42h0a.7.7,0,0,0,.62-1,3.13,3.13,0,0,0-2.09-1.67V17.71L319.08,20a3.12,3.12,0,0,0,.4,2.64.7.7,0,0,0,1.19,0h0a.72.72,0,0,0,0-.76,1.74,1.74,0,0,1-.27-1.11l1.15.66a3.08,3.08,0,0,0,.4,2.64.69.69,0,0,0,1.18,0h0a.72.72,0,0,0,0-.76,1.67,1.67,0,0,1-.26-1.11l1.76,1a2.1,2.1,0,1,0,.7-1.21l-1.76-1a1.72,1.72,0,0,1,1.1-.33.69.69,0,0,0,.67-.34h0a.7.7,0,0,0-.57-1,3.08,3.08,0,0,0-2.49,1l-1.15-.66a1.76,1.76,0,0,1,1.1-.33.71.71,0,0,0,.68-.34h0a.7.7,0,0,0-.57-1,3.1,3.1,0,0,0-2.49,1l-3.88-2.24,3.92-2.26a3.1,3.1,0,0,0,2.49,1,.7.7,0,0,0,.57-1h0a.71.71,0,0,0-.68-.34,1.76,1.76,0,0,1-1.1-.33l1.15-.66a3.08,3.08,0,0,0,2.49,1,.7.7,0,0,0,.57-1h0a.69.69,0,0,0-.67-.34,1.72,1.72,0,0,1-1.1-.33l1.76-1A2.09,2.09,0,0,0,327.69,11.33Zm-1.4-2.43a.7.7,0,0,1,.7,1.22.7.7,0,0,1-.7-1.22ZM303,9.79a.7.7,0,1,1-1.21-.7.7.7,0,1,1,1.21.7Zm-.29,14.26a.7.7,0,1,1-.7-1.22.7.7,0,0,1,.95.26A.71.71,0,0,1,302.71,24.05Zm12.45,6.43a.7.7,0,1,1-.7-.7A.7.7,0,0,1,315.16,30.48Zm-.62-27.3a.7.7,0,1,1,.7-.7A.7.7,0,0,1,314.54,3.18Zm11.46,20a.7.7,0,1,1,1.21.7.7.7,0,1,1-1.21-.7Z"/><path class="cls-1" d="M389.82,11l-3.54,1.15a3.34,3.34,0,0,1,1-2.76.7.7,0,0,0-.6-1.26l-.11,0-.09.07a4.71,4.71,0,0,0-1.54,4.35l-2.59.84a6.32,6.32,0,0,1,1.06-4.81.69.69,0,0,0-.13-1,.7.7,0,0,0-1,.12,7.69,7.69,0,0,0-1.28,6.1L377.33,15a3,3,0,0,0-1.84-1.24V10a7.72,7.72,0,0,0,5.41-3.1.7.7,0,0,0-.19-1,.7.7,0,0,0-1,.18,6.36,6.36,0,0,1-4.25,2.49V5.85a4.55,4.55,0,0,0,3.77-3.24.7.7,0,0,0-1.37-.25,3.14,3.14,0,0,1-2.4,2.05V.7a.7.7,0,1,0-1.4,0V4.42a3.32,3.32,0,0,1-2.32-1.79.7.7,0,0,0-.68-.52.71.71,0,0,0-.7.7v.12l0,.11a4.74,4.74,0,0,0,3.66,2.81V8.57a6.33,6.33,0,0,1-4.25-2.5.7.7,0,0,0-1-.18.69.69,0,0,0-.18,1,7.63,7.63,0,0,0,5.4,3.11v3.8a3.1,3.1,0,0,0-2,1.46l-3.38-1.1A7.72,7.72,0,0,0,367.46,8a.7.7,0,1,0-1.11.85,6.37,6.37,0,0,1,1,4.81l-2.58-.83a4.59,4.59,0,0,0-1.92-4.6.7.7,0,1,0-.66,1.24,3.15,3.15,0,0,1,1.21,2.91l-3.53-1.15a.7.7,0,1,0-.44,1.33L363,13.74a3.34,3.34,0,0,1-2.42,1.66.69.69,0,0,0-.7.48.7.7,0,0,0,.45.88l.11,0h.12a4.74,4.74,0,0,0,3.8-2.61L367,15a6.34,6.34,0,0,1-3.69,3.26.7.7,0,0,0,.4,1.35,7.72,7.72,0,0,0,4.62-4.18l3.4,1.1a2,2,0,0,0,0,.24,3.11,3.11,0,0,0,.47,1.63l-2.25,3.11a7.68,7.68,0,0,0-6.19-.68.7.7,0,1,0,.46,1.32,6.35,6.35,0,0,1,4.91.49l-1.6,2.19c-1.52-.75-3.71-.79-5,.41a.7.7,0,0,0,1,1,3.17,3.17,0,0,1,3.15-.25l-2.19,3a.7.7,0,0,0,1.13.83l2.19-3a3.35,3.35,0,0,1,.83,2.81.69.69,0,0,0,.24.82.71.71,0,0,0,1-.16l.07-.09,0-.11a4.74,4.74,0,0,0-1.31-4.43l1.6-2.2a6.31,6.31,0,0,1,2,4.51.7.7,0,1,0,1.4.05A7.65,7.65,0,0,0,371,22.36l2.12-2.92a3.09,3.09,0,0,0,1.65.48,3.05,3.05,0,0,0,1.5-.4l2.08,2.86a7.71,7.71,0,0,0-2.55,5.69.7.7,0,0,0,1.4,0,6.36,6.36,0,0,1,2-4.51l1.59,2.19c-1.18,1.21-1.9,3.28-1.15,4.84a.7.7,0,0,0,1.27-.6,3.14,3.14,0,0,1,.73-3.07l2.18,3a.71.71,0,0,0,1,.16.7.7,0,0,0,.15-1l-2.18-3a3.35,3.35,0,0,1,2.93.08.68.68,0,0,0,.85,0,.7.7,0,0,0,.15-1l-.07-.09-.09-.07a4.73,4.73,0,0,0-4.61-.12l-1.6-2.2a6.37,6.37,0,0,1,4.9-.48.7.7,0,1,0,.47-1.31,7.62,7.62,0,0,0-6.19.66l-2.17-3a3,3,0,0,0,.57-1.78,2.63,2.63,0,0,0-.05-.49l3.58-1.17a7.74,7.74,0,0,0,4.62,4.19.7.7,0,1,0,.39-1.35,6.37,6.37,0,0,1-3.68-3.27l2.58-.84a4.59,4.59,0,0,0,4.26,2.59.7.7,0,0,0-.19-1.39,3.17,3.17,0,0,1-2.7-1.64l3.54-1.15a.72.72,0,0,0,.45-.88A.71.71,0,0,0,389.82,11Zm-15,7.57a1.72,1.72,0,1,1,1.72-1.72A1.72,1.72,0,0,1,374.79,18.52Z"/></g></g></svg>
