<svg xmlns="http://www.w3.org/2000/svg" viewBox="0 0 307.74 100.9"><defs><style>.cls-1{fill:#a9d8d5;}</style></defs><title>Asset 4</title><g id="Layer_2" data-name="Layer 2"><g id="Layer_1-2" data-name="Layer 1"><path class="cls-1" d="M30.82,63.45,27.28,64.6a3.34,3.34,0,0,1,1-2.76.7.7,0,0,0-.6-1.26l-.11,0-.09.07A4.71,4.71,0,0,0,25.93,65l-2.59.84a6.32,6.32,0,0,1,1.06-4.81.69.69,0,0,0-.13-1,.7.7,0,0,0-1,.12A7.69,7.69,0,0,0,22,66.31l-3.68,1.2a3,3,0,0,0-1.84-1.24v-3.8a7.72,7.72,0,0,0,5.41-3.1.7.7,0,0,0-.19-1,.7.7,0,0,0-1,.18,6.36,6.36,0,0,1-4.25,2.49V58.35a4.55,4.55,0,0,0,3.77-3.24.7.7,0,0,0-1.37-.25,3.14,3.14,0,0,1-2.4,2V53.2a.7.7,0,1,0-1.4,0v3.72a3.32,3.32,0,0,1-2.32-1.79.7.7,0,0,0-.68-.52.71.71,0,0,0-.7.7v.12l0,.11a4.74,4.74,0,0,0,3.66,2.81v2.72a6.33,6.33,0,0,1-4.25-2.5.7.7,0,0,0-1-.18.69.69,0,0,0-.18,1,7.63,7.63,0,0,0,5.4,3.11v3.8a3.1,3.1,0,0,0-2,1.46l-3.38-1.1a7.72,7.72,0,0,0-1.27-6.1.7.7,0,1,0-1.11.85A6.37,6.37,0,0,1,8.4,66.19l-2.58-.83a4.59,4.59,0,0,0-1.92-4.6A.7.7,0,0,0,3.24,62a3.15,3.15,0,0,1,1.21,2.91L.92,63.76a.7.7,0,1,0-.44,1.33L4,66.24A3.34,3.34,0,0,1,1.6,67.9a.69.69,0,0,0-.7.48.7.7,0,0,0,.45.88l.11,0h.12a4.74,4.74,0,0,0,3.8-2.61L8,67.53a6.34,6.34,0,0,1-3.69,3.26.7.7,0,0,0,.4,1.35A7.72,7.72,0,0,0,9.3,68l3.4,1.1a2,2,0,0,0,0,.24,3.11,3.11,0,0,0,.47,1.63L10.89,74a7.68,7.68,0,0,0-6.19-.68.7.7,0,1,0,.46,1.32,6.35,6.35,0,0,1,4.91.49l-1.6,2.19c-1.52-.75-3.71-.79-5,.41a.7.7,0,1,0,1,1,3.17,3.17,0,0,1,3.15-.25l-2.19,3a.7.7,0,0,0,1.13.83l2.19-3a3.35,3.35,0,0,1,.83,2.81.69.69,0,0,0,.24.82.71.71,0,0,0,1-.16l.07-.09,0-.11A4.74,4.74,0,0,0,9.6,78.19L11.2,76a6.31,6.31,0,0,1,2,4.51.7.7,0,1,0,1.4,0A7.65,7.65,0,0,0,12,74.86l2.12-2.92a3.09,3.09,0,0,0,1.65.48,3.05,3.05,0,0,0,1.5-.4l2.08,2.86a7.71,7.71,0,0,0-2.55,5.69.7.7,0,0,0,1.4,0,6.36,6.36,0,0,1,2-4.51l1.59,2.19c-1.18,1.21-1.9,3.28-1.15,4.84a.7.7,0,0,0,1.27-.6,3.14,3.14,0,0,1,.73-3.07l2.18,3a.71.71,0,0,0,1,.16.7.7,0,0,0,.15-1l-2.18-3a3.35,3.35,0,0,1,2.93.08.68.68,0,0,0,.85,0,.7.7,0,0,0,.15-1l-.07-.09-.09-.07a4.73,4.73,0,0,0-4.61-.12l-1.6-2.2a6.37,6.37,0,0,1,4.9-.48.7.7,0,1,0,.47-1.31,7.62,7.62,0,0,0-6.19.66l-2.17-3a3,3,0,0,0,.57-1.78,2.63,2.63,0,0,0-.05-.49l3.58-1.17a7.74,7.74,0,0,0,4.62,4.19.7.7,0,0,0,.39-1.35,6.37,6.37,0,0,1-3.68-3.27l2.58-.84A4.59,4.59,0,0,0,30.61,69a.7.7,0,0,0-.19-1.39,3.17,3.17,0,0,1-2.7-1.64l3.54-1.15a.72.72,0,0,0,.45-.88A.71.71,0,0,0,30.82,63.45ZM15.79,71a1.72,1.72,0,1,1,1.72-1.72A1.72,1.72,0,0,1,15.79,71Z"/><path class="cls-1" d="M236.12,80.65l-3.54,1.15a3.34,3.34,0,0,1,1-2.76.7.7,0,0,0-.6-1.26l-.11,0-.09.07a4.71,4.71,0,0,0-1.54,4.35l-2.59.84a6.32,6.32,0,0,1,1.06-4.81.69.69,0,0,0-.13-1,.7.7,0,0,0-1,.12,7.69,7.69,0,0,0-1.28,6.1l-3.68,1.2a3,3,0,0,0-1.84-1.24v-3.8a7.72,7.72,0,0,0,5.41-3.1.7.7,0,0,0-.19-1,.7.7,0,0,0-1,.18,6.36,6.36,0,0,1-4.25,2.49V75.55a4.55,4.55,0,0,0,3.77-3.24.7.7,0,0,0-1.37-.25,3.14,3.14,0,0,1-2.4,2V70.4a.7.7,0,1,0-1.4,0v3.72a3.32,3.32,0,0,1-2.32-1.79.7.7,0,0,0-.68-.52.71.71,0,0,0-.7.7v.12l0,.11a4.74,4.74,0,0,0,3.66,2.81v2.72a6.33,6.33,0,0,1-4.25-2.5.7.7,0,0,0-1-.18.69.69,0,0,0-.18,1,7.63,7.63,0,0,0,5.4,3.11v3.8a3.1,3.1,0,0,0-2,1.46L215,83.83a7.72,7.72,0,0,0-1.27-6.1.7.7,0,1,0-1.11.85,6.37,6.37,0,0,1,1,4.81l-2.58-.83A4.59,4.59,0,0,0,209.2,78a.7.7,0,0,0-.66,1.24,3.15,3.15,0,0,1,1.21,2.91L206.22,81a.7.7,0,1,0-.44,1.33l3.54,1.15a3.34,3.34,0,0,1-2.42,1.66.69.69,0,0,0-.7.48.7.7,0,0,0,.45.88l.11,0h.12a4.74,4.74,0,0,0,3.8-2.61l2.59.84A6.34,6.34,0,0,1,209.58,88a.7.7,0,0,0,.4,1.35,7.72,7.72,0,0,0,4.62-4.18l3.4,1.1a2,2,0,0,0,0,.24,3.11,3.11,0,0,0,.47,1.63l-2.25,3.11a7.68,7.68,0,0,0-6.19-.68.7.7,0,1,0,.46,1.32,6.35,6.35,0,0,1,4.91.49l-1.6,2.19c-1.52-.75-3.71-.79-5,.41a.7.7,0,0,0,1,1,3.17,3.17,0,0,1,3.15-.25l-2.19,3a.7.7,0,0,0,1.13.83l2.19-3a3.35,3.35,0,0,1,.83,2.81.69.69,0,0,0,.24.82.71.71,0,0,0,1-.16l.07-.09,0-.11a4.74,4.74,0,0,0-1.31-4.43l1.6-2.2a6.31,6.31,0,0,1,2,4.51.7.7,0,1,0,1.4,0,7.65,7.65,0,0,0-2.55-5.69l2.12-2.92a3.09,3.09,0,0,0,1.65.48,3.05,3.05,0,0,0,1.5-.4l2.08,2.86a7.71,7.71,0,0,0-2.55,5.69.7.7,0,0,0,1.4,0,6.36,6.36,0,0,1,2-4.51l1.59,2.19c-1.18,1.21-1.9,3.28-1.15,4.84a.7.7,0,0,0,1.27-.6,3.14,3.14,0,0,1,.73-3.07l2.18,3a.71.71,0,0,0,1,.16.7.7,0,0,0,.15-1l-2.18-3a3.35,3.35,0,0,1,2.93.08.68.68,0,0,0,.85,0,.7.7,0,0,0,.15-1l-.07-.09-.09-.07a4.73,4.73,0,0,0-4.61-.12l-1.6-2.2a6.37,6.37,0,0,1,4.9-.48A.7.7,0,1,0,232,90.6a7.62,7.62,0,0,0-6.19.66l-2.17-3a3,3,0,0,0,.57-1.78,2.63,2.63,0,0,0-.05-.49l3.58-1.17A7.74,7.74,0,0,0,232.36,89a.7.7,0,1,0,.39-1.35,6.37,6.37,0,0,1-3.68-3.27l2.58-.84a4.59,4.59,0,0,0,4.26,2.59.7.7,0,0,0-.19-1.39,3.17,3.17,0,0,1-2.7-1.64L236.56,82a.72.72,0,0,0,.45-.88A.71.71,0,0,0,236.12,80.65Zm-14.6,7.52a1.72,1.72,0,1,1,1.24-1.24A1.73,1.73,0,0,1,221.52,88.17Z"/><path class="cls-1" d="M172.62,11l-3.54,1.15a3.34,3.34,0,0,1,1-2.76.7.7,0,0,0-.6-1.26l-.11,0-.09.07a4.71,4.71,0,0,0-1.54,4.35l-2.59.84a6.32,6.32,0,0,1,1.06-4.81.69.69,0,0,0-.13-1,.7.7,0,0,0-1,.12,7.69,7.69,0,0,0-1.28,6.1L160.13,15a3,3,0,0,0-1.84-1.24V10a7.72,7.72,0,0,0,5.41-3.1.7.7,0,0,0-.19-1,.7.7,0,0,0-1,.18,6.36,6.36,0,0,1-4.25,2.49V5.85a4.55,4.55,0,0,0,3.77-3.24.7.7,0,0,0-1.37-.25,3.14,3.14,0,0,1-2.4,2.05V.7a.7.7,0,0,0-1.4,0V4.42a3.32,3.32,0,0,1-2.32-1.79.7.7,0,0,0-.68-.52.71.71,0,0,0-.7.7v.12l0,.11a4.74,4.74,0,0,0,3.66,2.81V8.57a6.33,6.33,0,0,1-4.25-2.5.7.7,0,0,0-1-.18.69.69,0,0,0-.18,1,7.63,7.63,0,0,0,5.4,3.11v3.8a3.1,3.1,0,0,0-2,1.46l-3.38-1.1A7.72,7.72,0,0,0,150.26,8a.7.7,0,1,0-1.11.85,6.37,6.37,0,0,1,1,4.81l-2.58-.83a4.59,4.59,0,0,0-1.92-4.6A.7.7,0,0,0,145,9.5a3.15,3.15,0,0,1,1.21,2.91l-3.53-1.15a.7.7,0,1,0-.44,1.33l3.54,1.15a3.34,3.34,0,0,1-2.42,1.66.69.69,0,0,0-.7.48.7.7,0,0,0,.45.88l.11,0h.12a4.74,4.74,0,0,0,3.8-2.61l2.59.84a6.34,6.34,0,0,1-3.69,3.26.7.7,0,0,0,.4,1.35,7.72,7.72,0,0,0,4.62-4.18l3.4,1.1a2,2,0,0,0,0,.24,3.11,3.11,0,0,0,.47,1.63l-2.25,3.11a7.68,7.68,0,0,0-6.19-.68.7.7,0,1,0,.46,1.32,6.35,6.35,0,0,1,4.91.49l-1.6,2.19c-1.52-.75-3.71-.79-5,.41a.7.7,0,1,0,1,1,3.17,3.17,0,0,1,3.15-.25l-2.19,3a.7.7,0,0,0,1.13.83l2.19-3a3.35,3.35,0,0,1,.83,2.81.69.69,0,0,0,.24.82.71.71,0,0,0,1-.16l.07-.09,0-.11a4.74,4.74,0,0,0-1.31-4.43l1.6-2.2A6.31,6.31,0,0,1,155,28a.7.7,0,1,0,1.4.05,7.65,7.65,0,0,0-2.55-5.69l2.12-2.92a3.09,3.09,0,0,0,1.65.48,3.05,3.05,0,0,0,1.5-.4l2.08,2.86a7.71,7.71,0,0,0-2.55,5.69.7.7,0,0,0,1.4,0,6.36,6.36,0,0,1,2-4.51l1.59,2.19c-1.18,1.21-1.9,3.28-1.15,4.84a.7.7,0,0,0,1.27-.6,3.14,3.14,0,0,1,.73-3.07l2.18,3a.71.71,0,0,0,1,.16.7.7,0,0,0,.15-1l-2.18-3a3.35,3.35,0,0,1,2.93.08.68.68,0,0,0,.85,0,.7.7,0,0,0,.15-1l-.07-.09-.09-.07a4.73,4.73,0,0,0-4.61-.12l-1.6-2.2a6.37,6.37,0,0,1,4.9-.48.7.7,0,1,0,.47-1.31,7.62,7.62,0,0,0-6.19.66l-2.17-3a3,3,0,0,0,.57-1.78,2.63,2.63,0,0,0-.05-.49l3.58-1.17a7.74,7.74,0,0,0,4.62,4.19.7.7,0,1,0,.39-1.35,6.37,6.37,0,0,1-3.68-3.27l2.58-.84a4.59,4.59,0,0,0,4.26,2.59.7.7,0,0,0-.19-1.39,3.17,3.17,0,0,1-2.7-1.64l3.54-1.15a.72.72,0,0,0,.45-.88A.71.71,0,0,0,172.62,11ZM158,18.47a1.72,1.72,0,1,1,1.24-1.24A1.73,1.73,0,0,1,158,18.47Z"/><path class="cls-1" d="M306.82,53.75l-3.54,1.15a3.34,3.34,0,0,1,1-2.76.7.7,0,0,0-.6-1.26l-.11,0-.09.07a4.71,4.71,0,0,0-1.54,4.35l-2.59.84a6.32,6.32,0,0,1,1.06-4.81.69.69,0,0,0-.13-1,.7.7,0,0,0-1,.12,7.69,7.69,0,0,0-1.28,6.1l-3.68,1.2a3,3,0,0,0-1.84-1.24v-3.8a7.72,7.72,0,0,0,5.41-3.1.7.7,0,0,0-.19-1,.7.7,0,0,0-1,.18,6.36,6.36,0,0,1-4.25,2.49V48.65a4.55,4.55,0,0,0,3.77-3.24.7.7,0,0,0-1.37-.25,3.14,3.14,0,0,1-2.4,2.05V43.5a.7.7,0,1,0-1.4,0v3.72a3.32,3.32,0,0,1-2.32-1.79.7.7,0,0,0-.68-.52.71.71,0,0,0-.7.7v.12l0,.11a4.74,4.74,0,0,0,3.66,2.81v2.72a6.33,6.33,0,0,1-4.25-2.5.7.7,0,0,0-1-.18.69.69,0,0,0-.18,1,7.63,7.63,0,0,0,5.4,3.11v3.8a3.1,3.1,0,0,0-2,1.46l-3.38-1.1a7.72,7.72,0,0,0-1.27-6.1.7.7,0,1,0-1.11.85,6.37,6.37,0,0,1,1,4.81l-2.58-.83a4.59,4.59,0,0,0-1.92-4.6.7.7,0,0,0-.66,1.24,3.15,3.15,0,0,1,1.21,2.91l-3.53-1.15a.7.7,0,1,0-.44,1.33L280,56.54a3.34,3.34,0,0,1-2.42,1.66.69.69,0,0,0-.7.48.7.7,0,0,0,.45.88l.11,0h.12a4.74,4.74,0,0,0,3.8-2.61l2.59.84a6.34,6.34,0,0,1-3.69,3.26.7.7,0,0,0,.4,1.35,7.72,7.72,0,0,0,4.62-4.18l3.4,1.1a2,2,0,0,0,0,.24,3.11,3.11,0,0,0,.47,1.63l-2.25,3.11a7.68,7.68,0,0,0-6.19-.68.7.7,0,1,0,.46,1.32,6.35,6.35,0,0,1,4.91.49l-1.6,2.19c-1.52-.75-3.71-.79-5,.41a.7.7,0,1,0,1,1,3.17,3.17,0,0,1,3.15-.25l-2.19,3a.7.7,0,0,0,1.13.83l2.19-3a3.35,3.35,0,0,1,.83,2.81.69.69,0,0,0,.24.82.71.71,0,0,0,1-.16l.07-.09,0-.11a4.74,4.74,0,0,0-1.31-4.43l1.6-2.2a6.31,6.31,0,0,1,2,4.51.7.7,0,1,0,1.4,0A7.65,7.65,0,0,0,288,65.16l2.12-2.92a3.09,3.09,0,0,0,1.65.48,3.05,3.05,0,0,0,1.5-.4l2.08,2.86a7.71,7.71,0,0,0-2.55,5.69.7.7,0,0,0,1.4,0,6.36,6.36,0,0,1,2-4.51l1.59,2.19c-1.18,1.21-1.9,3.28-1.15,4.84a.7.7,0,0,0,1.27-.6,3.14,3.14,0,0,1,.73-3.07l2.18,3a.71.71,0,0,0,1,.16.7.7,0,0,0,.15-1l-2.18-3a3.35,3.35,0,0,1,2.93.08.68.68,0,0,0,.85,0,.7.7,0,0,0,.15-1l-.07-.09-.09-.07a4.73,4.73,0,0,0-4.61-.12l-1.6-2.2a6.37,6.37,0,0,1,4.9-.48.7.7,0,1,0,.47-1.31,7.62,7.62,0,0,0-6.19.66l-2.17-3a3,3,0,0,0,.57-1.78,2.63,2.63,0,0,0-.05-.49l3.58-1.17a7.74,7.74,0,0,0,4.62,4.19.7.7,0,1,0,.39-1.35,6.37,6.37,0,0,1-3.68-3.27l2.58-.84a4.59,4.59,0,0,0,4.26,2.59.7.7,0,1,0-.19-1.39,3.17,3.17,0,0,1-2.7-1.64l3.54-1.15a.72.72,0,0,0,.45-.88A.71.71,0,0,0,306.82,53.75Zm-14.6,7.52A1.72,1.72,0,1,1,293.46,60,1.73,1.73,0,0,1,292.22,61.27Z"/><path class="cls-1" d="M73.69,24.35a2.1,2.1,0,1,0-2.1-3.63,2.07,2.07,0,0,0-1,2.19l-1.76,1a1.7,1.7,0,0,1,.26-1.12.72.72,0,0,0,0-.76h0A.69.69,0,0,0,68,22a3.1,3.1,0,0,0-.4,2.65l-1.15.66a1.77,1.77,0,0,1,.27-1.12.72.72,0,0,0,0-.76h0a.7.7,0,0,0-1.19,0,3.14,3.14,0,0,0-.4,2.65l-3.88,2.24V23.78a3.07,3.07,0,0,0,2.09-1.67.7.7,0,0,0-.62-1h0a.71.71,0,0,0-.63.42,1.72,1.72,0,0,1-.84.78V21a3.07,3.07,0,0,0,2.09-1.67.7.7,0,0,0-.62-1h0a.71.71,0,0,0-.63.42,1.72,1.72,0,0,1-.84.78v-2a2.1,2.1,0,1,0-1.4,0v2a1.72,1.72,0,0,1-.84-.78.71.71,0,0,0-.63-.42h0a.7.7,0,0,0-.62,1A3.07,3.07,0,0,0,59.84,21V22.3a1.72,1.72,0,0,1-.84-.78.71.71,0,0,0-.63-.42h0a.7.7,0,0,0-.62,1,3.07,3.07,0,0,0,2.09,1.67v4.48L55.92,26a3.11,3.11,0,0,0-.4-2.64.7.7,0,0,0-1.19,0h0a.7.7,0,0,0,0,.75,1.77,1.77,0,0,1,.27,1.12l-1.15-.66a3.07,3.07,0,0,0-.4-2.64.69.69,0,0,0-1.18,0h0a.7.7,0,0,0,0,.75,1.7,1.7,0,0,1,.26,1.12l-1.76-1a2.09,2.09,0,1,0-.7,1.22l1.76,1a1.73,1.73,0,0,1-1.1.34.72.72,0,0,0-.68.34h0a.7.7,0,0,0,.57,1,3.09,3.09,0,0,0,2.49-1l1.15.66a1.77,1.77,0,0,1-1.1.34.71.71,0,0,0-.68.34h0a.7.7,0,0,0,.57,1,3.11,3.11,0,0,0,2.49-1l3.88,2.24-3.92,2.27a3.11,3.11,0,0,0-2.49-1,.7.7,0,0,0-.57,1h0a.75.75,0,0,0,.68.34,1.7,1.7,0,0,1,1.1.33l-1.15.66a3.09,3.09,0,0,0-2.49-1,.7.7,0,0,0-.57,1h0a.73.73,0,0,0,.67.34,1.67,1.67,0,0,1,1.1.33l-1.76,1a2.1,2.1,0,0,0-3.17,2.65,2.09,2.09,0,0,0,3.87-1.43l1.76-1a1.7,1.7,0,0,1-.26,1.12.72.72,0,0,0,0,.76h0a.69.69,0,0,0,1.18,0,3.1,3.1,0,0,0,.4-2.65l1.15-.66a1.77,1.77,0,0,1-.27,1.12.72.72,0,0,0,0,.76h0a.7.7,0,0,0,1.19,0,3.14,3.14,0,0,0,.4-2.65l3.88-2.24v4.53a3.07,3.07,0,0,0-2.09,1.67.7.7,0,0,0,.62,1h0a.71.71,0,0,0,.63-.42,1.72,1.72,0,0,1,.84-.78V38a3.07,3.07,0,0,0-2.09,1.67.7.7,0,0,0,.62,1h0a.71.71,0,0,0,.63-.42,1.72,1.72,0,0,1,.84-.78v2a2.1,2.1,0,1,0,1.4,0v-2a1.72,1.72,0,0,1,.84.78.71.71,0,0,0,.63.42h0a.7.7,0,0,0,.62-1A3.07,3.07,0,0,0,61.16,38V36.7a1.72,1.72,0,0,1,.84.78.71.71,0,0,0,.63.42h0a.7.7,0,0,0,.62-1,3.07,3.07,0,0,0-2.09-1.67V30.74L65.08,33a3.11,3.11,0,0,0,.4,2.64.7.7,0,0,0,1.19,0h0a.7.7,0,0,0,0-.75,1.77,1.77,0,0,1-.27-1.12l1.15.66a3.07,3.07,0,0,0,.4,2.64.69.69,0,0,0,1.18,0h0a.7.7,0,0,0,0-.75,1.7,1.7,0,0,1-.26-1.12l1.76,1a2.09,2.09,0,1,0,.7-1.22l-1.76-1a1.73,1.73,0,0,1,1.1-.34.69.69,0,0,0,.67-.34h0a.7.7,0,0,0-.57-1,3.09,3.09,0,0,0-2.49,1l-1.15-.66a1.77,1.77,0,0,1,1.1-.34.71.71,0,0,0,.68-.34h0a.7.7,0,0,0-.57-1,3.11,3.11,0,0,0-2.49,1L61.9,29.55l3.92-2.27a3.11,3.11,0,0,0,2.49,1,.7.7,0,0,0,.57-1h0a.75.75,0,0,0-.68-.34,1.7,1.7,0,0,1-1.1-.33l1.15-.66a3.09,3.09,0,0,0,2.49,1,.7.7,0,0,0,.57-1h0a.73.73,0,0,0-.67-.34,1.67,1.67,0,0,1-1.1-.33l1.76-1A2.07,2.07,0,0,0,73.69,24.35Zm-1.4-2.42a.7.7,0,1,1-.25.95A.69.69,0,0,1,72.29,21.93ZM49,22.82a.7.7,0,1,1-.25-1A.71.71,0,0,1,49,22.82Zm-.29,14.25a.7.7,0,1,1-.7-1.21.7.7,0,0,1,.7,1.21ZM61.16,43.5a.7.7,0,1,1-.7-.7A.7.7,0,0,1,61.16,43.5Zm-.62-27.3a.7.7,0,1,1,.7-.7A.7.7,0,0,1,60.54,16.2ZM72,36.18a.7.7,0,0,1,1.21.7.7.7,0,1,1-1.21-.7Z"/><path class="cls-1" d="M122.19,79.65a2.1,2.1,0,1,0-2.1-3.63,2.07,2.07,0,0,0-1,2.19l-1.76,1a1.7,1.7,0,0,1,.26-1.12.72.72,0,0,0,0-.76h0a.69.69,0,0,0-1.18,0,3.1,3.1,0,0,0-.4,2.65l-1.15.66a1.77,1.77,0,0,1,.27-1.12.72.72,0,0,0,0-.76h0a.7.7,0,0,0-1.19,0,3.14,3.14,0,0,0-.4,2.65l-3.88,2.24V79.08a3.07,3.07,0,0,0,2.09-1.67.7.7,0,0,0-.62-1h0a.71.71,0,0,0-.63.42,1.72,1.72,0,0,1-.84.78V76.28a3.07,3.07,0,0,0,2.09-1.67.7.7,0,0,0-.62-1h0a.71.71,0,0,0-.63.42,1.72,1.72,0,0,1-.84.78v-2a2.1,2.1,0,1,0-1.4,0v2a1.72,1.72,0,0,1-.84-.78.71.71,0,0,0-.63-.42h0a.7.7,0,0,0-.62,1,3.07,3.07,0,0,0,2.09,1.67V77.6a1.72,1.72,0,0,1-.84-.78.71.71,0,0,0-.63-.42h0a.7.7,0,0,0-.62,1,3.07,3.07,0,0,0,2.09,1.67v4.48l-3.92-2.26a3.11,3.11,0,0,0-.4-2.64.7.7,0,0,0-1.19,0h0a.7.7,0,0,0,0,.75,1.77,1.77,0,0,1,.27,1.12L102,79.9a3.07,3.07,0,0,0-.4-2.64.69.69,0,0,0-1.18,0h0a.7.7,0,0,0,0,.75,1.7,1.7,0,0,1,.26,1.12l-1.76-1a2.09,2.09,0,1,0-.7,1.22l1.76,1a1.73,1.73,0,0,1-1.1.34.72.72,0,0,0-.68.34h0a.7.7,0,0,0,.57,1,3.09,3.09,0,0,0,2.49-1l1.15.66a1.77,1.77,0,0,1-1.1.34.71.71,0,0,0-.68.34h0a.7.7,0,0,0,.57,1,3.11,3.11,0,0,0,2.49-1l3.88,2.24L103.68,87a3.11,3.11,0,0,0-2.49-1,.7.7,0,0,0-.57,1h0a.75.75,0,0,0,.68.34,1.7,1.7,0,0,1,1.1.33l-1.15.66a3.09,3.09,0,0,0-2.49-1,.7.7,0,0,0-.57,1h0a.73.73,0,0,0,.67.34,1.67,1.67,0,0,1,1.1.33l-1.76,1A2.1,2.1,0,0,0,95,92.82a2.09,2.09,0,0,0,3.87-1.43l1.76-1a1.7,1.7,0,0,1-.26,1.12.72.72,0,0,0,0,.76h0a.69.69,0,0,0,1.18,0,3.1,3.1,0,0,0,.4-2.65L103.1,89a1.77,1.77,0,0,1-.27,1.12.72.72,0,0,0,0,.76h0a.7.7,0,0,0,1.19,0,3.14,3.14,0,0,0,.4-2.65L108.26,86v4.53a3.07,3.07,0,0,0-2.09,1.67.7.7,0,0,0,.62,1h0a.71.71,0,0,0,.63-.42,1.72,1.72,0,0,1,.84-.78v1.32A3.07,3.07,0,0,0,106.17,95a.7.7,0,0,0,.62,1h0a.71.71,0,0,0,.63-.42,1.72,1.72,0,0,1,.84-.78v2a2.1,2.1,0,1,0,1.4,0v-2a1.72,1.72,0,0,1,.84.78.71.71,0,0,0,.63.42h0a.7.7,0,0,0,.62-1,3.07,3.07,0,0,0-2.09-1.67V92a1.72,1.72,0,0,1,.84.78.71.71,0,0,0,.63.42h0a.7.7,0,0,0,.62-1,3.07,3.07,0,0,0-2.09-1.67V86l3.92,2.26a3.11,3.11,0,0,0,.4,2.64.7.7,0,0,0,1.19,0h0a.7.7,0,0,0,0-.75,1.77,1.77,0,0,1-.27-1.12l1.15.66a3.07,3.07,0,0,0,.4,2.64.69.69,0,0,0,1.18,0h0a.7.7,0,0,0,0-.75,1.7,1.7,0,0,1-.26-1.12l1.76,1a2.09,2.09,0,1,0,.7-1.22l-1.76-1a1.73,1.73,0,0,1,1.1-.34.69.69,0,0,0,.67-.34h0a.7.7,0,0,0-.57-1,3.09,3.09,0,0,0-2.49,1l-1.15-.66a1.77,1.77,0,0,1,1.1-.34.71.71,0,0,0,.68-.34h0a.7.7,0,0,0-.57-1,3.11,3.11,0,0,0-2.49,1l-3.88-2.24,3.92-2.27a3.11,3.11,0,0,0,2.49,1,.7.7,0,0,0,.57-1h0a.75.75,0,0,0-.68-.34,1.7,1.7,0,0,1-1.1-.33l1.15-.66a3.09,3.09,0,0,0,2.49,1,.7.7,0,0,0,.57-1h0a.73.73,0,0,0-.67-.34,1.67,1.67,0,0,1-1.1-.33l1.76-1A2.07,2.07,0,0,0,122.19,79.65Zm-1.4-2.42a.7.7,0,1,1-.25,1A.69.69,0,0,1,120.79,77.23Zm-23.29.89a.7.7,0,1,1-.25-1A.71.71,0,0,1,97.5,78.12Zm-.29,14.25a.7.7,0,1,1-.7-1.21.7.7,0,0,1,.7,1.21Zm12.45,6.43a.7.7,0,1,1-.7-.7A.7.7,0,0,1,109.66,98.8ZM109,71.5a.7.7,0,1,1,.7-.7A.7.7,0,0,1,109,71.5Zm11.46,20a.7.7,0,0,1,1.21.7.7.7,0,1,1-1.21-.7Z"/><path class="cls-1" d="M262.79,26.55a2.1,2.1,0,1,0-2.1-3.63,2.07,2.07,0,0,0-1,2.19l-1.76,1a1.7,1.7,0,0,1,.26-1.12.72.72,0,0,0,0-.76h0a.69.69,0,0,0-1.18,0,3.1,3.1,0,0,0-.4,2.65l-1.15.66a1.77,1.77,0,0,1,.27-1.12.72.72,0,0,0,0-.76h0a.7.7,0,0,0-1.19,0,3.14,3.14,0,0,0-.4,2.65l-3.88,2.24V26a3.07,3.07,0,0,0,2.09-1.67.7.7,0,0,0-.62-1h0a.71.71,0,0,0-.63.42,1.72,1.72,0,0,1-.84.78V23.18a3.07,3.07,0,0,0,2.09-1.67.7.7,0,0,0-.62-1h0a.71.71,0,0,0-.63.42,1.72,1.72,0,0,1-.84.78v-2a2.1,2.1,0,1,0-1.4,0v2a1.72,1.72,0,0,1-.84-.78.71.71,0,0,0-.63-.42h0a.7.7,0,0,0-.62,1,3.07,3.07,0,0,0,2.09,1.67V24.5a1.72,1.72,0,0,1-.84-.78.71.71,0,0,0-.63-.42h0a.7.7,0,0,0-.62,1A3.07,3.07,0,0,0,248.94,26v4.48L245,28.2a3.11,3.11,0,0,0-.4-2.64.7.7,0,0,0-1.19,0h0a.7.7,0,0,0,0,.75,1.77,1.77,0,0,1,.27,1.12l-1.15-.66a3.07,3.07,0,0,0-.4-2.64.69.69,0,0,0-1.18,0h0a.7.7,0,0,0,0,.75,1.7,1.7,0,0,1,.26,1.12l-1.76-1a2.09,2.09,0,1,0-.7,1.22l1.76,1a1.73,1.73,0,0,1-1.1.34.72.72,0,0,0-.68.34h0a.7.7,0,0,0,.57,1,3.09,3.09,0,0,0,2.49-1l1.15.66a1.77,1.77,0,0,1-1.1.34.71.71,0,0,0-.68.34h0a.7.7,0,0,0,.57,1,3.11,3.11,0,0,0,2.49-1l3.88,2.24-3.92,2.27a3.11,3.11,0,0,0-2.49-1,.7.7,0,0,0-.57,1h0a.75.75,0,0,0,.68.34,1.7,1.7,0,0,1,1.1.33l-1.15.66a3.09,3.09,0,0,0-2.49-1,.7.7,0,0,0-.57,1h0a.76.76,0,0,0,.68.34,1.67,1.67,0,0,1,1.1.33l-1.76,1a2.1,2.1,0,0,0-3.17,2.65,2.1,2.1,0,0,0,2.87.76,2.07,2.07,0,0,0,1-2.19l1.76-1a1.7,1.7,0,0,1-.26,1.12.72.72,0,0,0,0,.76h0a.69.69,0,0,0,1.18,0,3.1,3.1,0,0,0,.4-2.65l1.15-.66a1.77,1.77,0,0,1-.27,1.12.72.72,0,0,0,0,.76h0a.7.7,0,0,0,1.19,0,3.14,3.14,0,0,0,.4-2.65l3.88-2.24v4.53a3.07,3.07,0,0,0-2.09,1.67.7.7,0,0,0,.62,1h0a.71.71,0,0,0,.63-.42,1.72,1.72,0,0,1,.84-.78v1.32a3.07,3.07,0,0,0-2.09,1.67.7.7,0,0,0,.62,1h0a.71.71,0,0,0,.63-.42,1.72,1.72,0,0,1,.84-.78v2a2.1,2.1,0,1,0,1.4,0v-2a1.72,1.72,0,0,1,.84.78.71.71,0,0,0,.63.42h0a.7.7,0,0,0,.62-1,3.07,3.07,0,0,0-2.09-1.67V38.9a1.72,1.72,0,0,1,.84.78.71.71,0,0,0,.63.42h0a.7.7,0,0,0,.62-1,3.07,3.07,0,0,0-2.09-1.67V32.94l3.92,2.26a3.11,3.11,0,0,0,.4,2.64.7.7,0,0,0,1.19,0h0a.7.7,0,0,0,0-.75,1.77,1.77,0,0,1-.27-1.12l1.15.66a3.07,3.07,0,0,0,.4,2.64.69.69,0,0,0,1.18,0h0a.7.7,0,0,0,0-.75,1.7,1.7,0,0,1-.26-1.12l1.76,1a2.09,2.09,0,1,0,.7-1.22l-1.76-1a1.73,1.73,0,0,1,1.1-.34.69.69,0,0,0,.67-.34h0a.7.7,0,0,0-.57-1,3.09,3.09,0,0,0-2.49,1l-1.15-.66a1.77,1.77,0,0,1,1.1-.34.71.71,0,0,0,.68-.34h0a.7.7,0,0,0-.57-1,3.11,3.11,0,0,0-2.49,1L251,31.75l3.92-2.27a3.11,3.11,0,0,0,2.49,1,.7.7,0,0,0,.57-1h0a.75.75,0,0,0-.68-.34,1.7,1.7,0,0,1-1.1-.33l1.15-.66a3.09,3.09,0,0,0,2.49,1,.7.7,0,0,0,.57-1h0a.73.73,0,0,0-.67-.34,1.67,1.67,0,0,1-1.1-.33l1.76-1A2.07,2.07,0,0,0,262.79,26.55Zm-1.4-2.42a.7.7,0,1,1-.25.95A.69.69,0,0,1,261.39,24.13ZM238.1,25a.7.7,0,1,1-.25-1A.71.71,0,0,1,238.1,25Zm-.29,14.25a.7.7,0,1,1-.7-1.21.7.7,0,0,1,.7,1.21Zm12.45,6.43a.7.7,0,1,1-.7-.7A.7.7,0,0,1,250.26,45.7Zm-.62-27.3a.7.7,0,1,1,.7-.7A.7.7,0,0,1,249.64,18.4Zm11.46,20a.7.7,0,0,1,1.21.7.7.7,0,1,1-1.21-.7Z"/></g></g></svg>