<svg xmlns="http://www.w3.org/2000/svg" viewBox="0 0 386.09 28.25"><defs><style>.cls-1{fill:#F4F2DC;}</style></defs><title>Asset 7</title><g id="Layer_2" data-name="Layer 2"><g id="Layer_1-2" data-name="Layer 1"><path class="cls-1" d="M16.05,28.25a1,1,0,0,1-.71-.29L2.61,15.23A8.92,8.92,0,0,1,15.23,2.61l.82.82.81-.82A8.9,8.9,0,0,1,23.17,0h0a8.86,8.86,0,0,1,6.3,2.61h0a8.92,8.92,0,0,1,0,12.61L16.75,28A1,1,0,0,1,16.05,28.25ZM8.92,2A6.93,6.93,0,0,0,4,13.82l12,12,12-12a6.93,6.93,0,0,0,0-9.79h0a6.88,6.88,0,0,0-4.9-2h0a6.88,6.88,0,0,0-4.89,2L16.75,5.55a1,1,0,0,1-1.41,0L13.81,4A6.86,6.86,0,0,0,8.92,2Z"/><path class="cls-1" d="M75.05,24.32a1,1,0,0,1-.71-.3l-8.91-8.91a6.54,6.54,0,0,1,9.25-9.25l.37.36.36-.36h0a6.54,6.54,0,0,1,9.25,0h0a6.55,6.55,0,0,1,0,9.25L75.75,24A1,1,0,0,1,75.05,24.32Zm-5-18.38a4.55,4.55,0,0,0-3.22,7.76l8.21,8.2,8.2-8.2a4.56,4.56,0,0,0,0-6.43L84,6.56l-.71.71a4.55,4.55,0,0,0-6.42,0h0L75.75,8.34a1,1,0,0,1-1.41,0L73.27,7.27A4.52,4.52,0,0,0,70.06,5.94Z"/><path class="cls-1" d="M134.05,28.25a1,1,0,0,1-.71-.29L120.61,15.23A8.92,8.92,0,0,1,133.23,2.61l.82.82.81-.82A8.9,8.9,0,0,1,141.17,0h0a8.86,8.86,0,0,1,6.3,2.61h0a8.92,8.92,0,0,1,0,12.61L134.75,28A1,1,0,0,1,134.05,28.25ZM126.92,2A6.93,6.93,0,0,0,122,13.82l12,12,12-12a6.93,6.93,0,0,0,0-9.79h0a6.88,6.88,0,0,0-4.9-2h0a6.88,6.88,0,0,0-4.89,2l-1.53,1.52a1,1,0,0,1-1.41,0L131.81,4A6.86,6.86,0,0,0,126.92,2Z"/><path class="cls-1" d="M193.05,24.32a1,1,0,0,1-.71-.3l-8.91-8.91a6.54,6.54,0,0,1,9.25-9.25l.37.36.36-.36h0a6.54,6.54,0,0,1,9.25,0h0a6.55,6.55,0,0,1,0,9.25L193.75,24A1,1,0,0,1,193.05,24.32Zm-5-18.38a4.55,4.55,0,0,0-3.22,7.76l8.21,8.2,8.2-8.2a4.56,4.56,0,0,0,0-6.43l.71-.71-.71.71a4.55,4.55,0,0,0-6.42,0h0l-1.07,1.07a1,1,0,0,1-1.41,0l-1.07-1.07A4.52,4.52,0,0,0,188.06,5.94Z"/><path class="cls-1" d="M252.05,28.25a1,1,0,0,1-.71-.29L238.61,15.23A8.92,8.92,0,0,1,251.23,2.61l.82.82.81-.82A8.9,8.9,0,0,1,259.17,0h0a8.86,8.86,0,0,1,6.3,2.61h0a8.92,8.92,0,0,1,0,12.61L252.75,28A1,1,0,0,1,252.05,28.25ZM244.92,2A6.93,6.93,0,0,0,240,13.82l12,12,12-12a6.93,6.93,0,0,0,0-9.79h0a6.88,6.88,0,0,0-4.9-2h0a6.88,6.88,0,0,0-4.89,2l-1.53,1.52a1,1,0,0,1-1.41,0L249.81,4A6.86,6.86,0,0,0,244.92,2Z"/><path class="cls-1" d="M311.05,24.32a1,1,0,0,1-.71-.3l-8.91-8.91a6.54,6.54,0,0,1,9.25-9.25l.37.36.36-.36h0a6.54,6.54,0,0,1,9.25,0h0a6.55,6.55,0,0,1,0,9.25L311.75,24A1,1,0,0,1,311.05,24.32Zm-5-18.38a4.55,4.55,0,0,0-3.22,7.76l8.21,8.2,8.2-8.2a4.56,4.56,0,0,0,0-6.43l.71-.71-.71.71a4.55,4.55,0,0,0-6.42,0h0l-1.07,1.07a1,1,0,0,1-1.41,0l-1.07-1.07A4.52,4.52,0,0,0,306.06,5.94Z"/><path class="cls-1" d="M370.05,28.25a1,1,0,0,1-.71-.29L356.61,15.23A8.92,8.92,0,0,1,369.23,2.61l.82.82.81-.82A8.9,8.9,0,0,1,377.17,0h0a8.86,8.86,0,0,1,6.3,2.61h0a8.92,8.92,0,0,1,0,12.61L370.75,28A1,1,0,0,1,370.05,28.25ZM362.92,2A6.93,6.93,0,0,0,358,13.82l12,12,12-12a6.93,6.93,0,0,0,0-9.79h0a6.88,6.88,0,0,0-4.9-2h0a6.88,6.88,0,0,0-4.89,2l-1.53,1.52a1,1,0,0,1-1.41,0L367.81,4A6.86,6.86,0,0,0,362.92,2Z"/></g></g></svg>
