<?xml version="1.0" encoding="UTF-8"?>
<svg width="34px" height="36px" viewBox="0 0 34 36" xmlns="http://www.w3.org/2000/svg" xmlns:xlink="http://www.w3.org/1999/xlink">
    <g>
        <g fill="#B0993D">
            <path d="M18,0 L18,2 C9.163444,2 2,9.163444 2,18 C2,26.836556 9.163444,34 18,34 C20.3800912,34 22.6845965,33.4806021 24.790629,32.4919426 L25.6405233,34.3023789 C23.269917,35.4152404 20.6754098,36 18,36 C8.0588745,36 0,27.9411255 0,18 C0,8.0588745 8.0588745,0 18,0 Z" id="Oval-2" fill-rule="nonzero"></path>
            <path d="M33.862,20.089 C33.5239983,20.0109996 32.2240113,19.9460003 29.962,19.894 L29.962,27.499 L26.842,27.499 L26.842,19.894 L16.663,19.894 L16.663,19.075 L29.338,1.369 L29.962,1.369 L29.962,17.281 L30.43,17.281 C31.1320035,17.281 31.6584982,17.2225006 32.0095,17.1055 C32.3605018,16.9884994 32.6009994,16.7935014 32.731,16.5205 C32.8610006,16.2474986 32.9649996,15.8380027 33.043,15.292 L33.706,15.292 C33.706,17.4760109 33.7579995,19.0749949 33.862,20.089 Z M26.842,17.281 L26.842,6.127 L18.964,17.281 L26.842,17.281 Z"></path>
        </g>
    </g>
</svg>
