<?xml version="1.0" encoding="UTF-8"?>
<svg width="35px" height="38px" viewBox="0 0 35 38" xmlns="http://www.w3.org/2000/svg" xmlns:xlink="http://www.w3.org/1999/xlink">
    <g>
        <g fill="#B0993D">
            <path d="M14.0362795,2.02434503 L14.4749018,3.97565497 C7.23263933,5.60359611 2,12.0641995 2,19.5862829 C2,28.4228389 9.163444,35.5862829 18,35.5862829 C21.4681607,35.5862829 24.766684,34.4812107 27.496657,32.4645124 L28.6850169,34.0731766 C25.6138234,36.3419429 21.8996006,37.5862829 18,37.5862829 C8.0588745,37.5862829 0,29.5274084 0,19.5862829 C0,11.1236702 5.88598617,3.85639653 14.0362795,2.02434503 Z M27.853,0.369 C29.4910082,0.369 30.8364947,0.77199597 31.8895,1.578 C32.9425053,2.38400403 33.469,3.46299324 33.469,4.815 C33.469,6.24500715 32.9035057,7.53199428 31.7725,8.676 C30.6414943,9.82000572 29.2700081,10.6779971 27.658,11.25 C29.66001,11.3020003 31.362993,11.8349949 32.767,12.849 C34.171007,13.8630051 34.873,15.3059906 34.873,17.178 C34.873,19.0500094 34.1515072,20.7269926 32.7085,22.209 C31.2654928,23.6910074 29.4325111,24.8414959 27.2095,25.6605 C24.9864889,26.4795041 22.7310114,26.889 20.443,26.889 L20.443,26.187 C22.2890092,26.1349997 24.0309918,25.7515036 25.669,25.0365 C27.3070082,24.3214964 28.6329949,23.2945067 29.647,21.9555 C30.6610051,20.6164933 31.168,19.0240092 31.168,17.178 C31.168,15.6439923 30.7910038,14.376505 30.037,13.3755 C29.2829962,12.374495 28.2820062,11.8220005 27.034,11.718 C26.9299995,11.7700003 26.6635021,11.8804992 26.2345,12.0495 C25.8054979,12.2185008 25.4610013,12.303 25.201,12.303 C24.7849979,12.303 24.577,12.1340017 24.577,11.796 C24.577,11.5619988 24.674499,11.3800006 24.8695,11.25 C25.064501,11.1199994 25.3049986,11.055 25.591,11.055 C25.7470008,11.055 25.9614986,11.0744998 26.2345,11.1135 C26.5075014,11.1525002 26.747999,11.1849999 26.956,11.211 C27.9700051,10.4309961 28.7239975,9.56000481 29.218,8.598 C29.7120025,7.63599519 29.959,6.6350052 29.959,5.595 C29.959,4.39899402 29.660003,3.51500286 29.062,2.943 C28.463997,2.37099714 27.6320053,2.085 26.566,2.085 C25.4739945,2.085 24.4860044,2.37749708 23.602,2.9625 C22.7179956,3.54750293 21.977003,4.41199428 21.379,5.556 L20.716,5.244 C22.2240075,1.99398375 24.6029838,0.369 27.853,0.369 Z"></path>
        </g>
    </g>
</svg>
