<?xml version="1.0" encoding="UTF-8"?>
<svg width="33px" height="36px" viewBox="0 0 33 36" xmlns="http://www.w3.org/2000/svg" xmlns:xlink="http://www.w3.org/1999/xlink">
    <g>
        <g fill="#B0993D">
            <path d="M18,0 L18,2 C9.163444,2 2,9.163444 2,18 C2,26.836556 9.163444,34 18,34 C21.7240546,34 25.250004,32.7249946 28.0802932,30.4259937 L29.3412772,31.9783852 C26.1576887,34.5643658 22.1875301,36 18,36 C8.0588745,36 0,27.9411255 0,18 C0,8.0588745 8.0588745,0 18,0 Z M28.867,19.983 C28.867,21.2050061 29.1464972,22.0434977 29.7055,22.4985 C30.2645028,22.9535023 31.2329931,23.181 32.611,23.181 L32.611,24 C29.802986,23.8959995 28.0090039,23.844 27.229,23.844 C26.5009964,23.844 24.8110133,23.8829996 22.159,23.961 L21.223,24 L21.223,23.181 C22.6010069,23.181 23.6344966,22.9470023 24.3235,22.479 C25.0125034,22.0109977 25.357,21.179006 25.357,19.983 L25.357,10.545 C25.357,9.29699376 25.2270013,8.38050292 24.967,7.7955 C24.7069987,7.21049707 24.2715031,6.82050097 23.6605,6.6255 C23.0494969,6.43049903 22.1070064,6.333 20.833,6.333 L20.833,5.475 C22.7310095,5.42299974 24.2974938,5.25400143 25.5325,4.968 C26.7675062,4.68199857 27.8789951,4.18800351 28.867,3.486 L28.867,19.983 Z"></path>
        </g>
    </g>
</svg>
