<?xml version="1.0" encoding="UTF-8"?>
<svg width="35px" height="36px" viewBox="0 0 35 36" xmlns="http://www.w3.org/2000/svg" xmlns:xlink="http://www.w3.org/1999/xlink">
    <g>
        <g fill="#B0993D">
            <path d="M14.1288853,0.0231961213 L14.5571571,1.97680388 C7.27521353,3.57315864 2,10.0527072 2,17.6056926 C2,26.4422486 9.163444,33.6056926 18,33.6056926 C22.3011356,33.6056926 26.3299989,31.9020579 29.3116981,28.9214111 L30.725662,30.3358743 C27.3726279,33.6877249 22.8368964,35.6056926 18,35.6056926 C8.0588745,35.6056926 0,27.5468181 0,17.6056926 C0,9.10829853 5.93387634,1.81971397 14.1288853,0.0231961213 Z M27.516,1.369 C29.3360091,1.369 30.7659948,1.79799571 31.806,2.656 C32.8460052,3.51400429 33.366,4.7229922 33.366,6.283 C33.366,7.34900533 33.0865028,8.382495 32.5275,9.3835 C31.9684972,10.384505 31.292504,11.3009958 30.4995,12.133 C29.706496,12.9650042 28.6600065,13.9659942 27.36,15.136 C26.2939947,16.1240049 25.5010026,16.8714975 24.981,17.3785 C24.4609974,17.8855025 23.9930021,18.4249971 23.577,18.997 L31.494,18.997 C32.1960035,18.997 32.7224982,18.9385006 33.0735,18.8215 C33.4245018,18.7044994 33.6649994,18.5095014 33.795,18.2365 C33.9250007,17.9634986 34.0289996,17.5540027 34.107,17.008 L34.77,17.008 C34.77,19.400012 34.8219995,21.1289947 34.926,22.195 C34.3539971,22.0649994 32.4170165,22 29.115,22 L19.989,22 L19.989,21.337 C20.4310022,20.8689977 21.1849947,20.1280051 22.251,19.114 C23.7330074,17.7359931 24.9679951,16.4945055 25.956,15.3895 C26.9440049,14.2844945 27.7954964,13.030007 28.5105,11.626 C29.2255036,10.221993 29.583,8.72700793 29.583,7.141 C29.583,4.33298596 28.283013,2.929 25.683,2.929 C23.5509893,2.929 21.8090068,4.15098778 20.457,6.595 L19.833,6.244 C20.5090034,4.83999298 21.4709938,3.67650462 22.719,2.7535 C23.9670062,1.83049539 25.5659903,1.369 27.516,1.369 Z"></path>
        </g>
    </g>
</svg>
