<?xml version="1.0" encoding="utf-8"?>
<!-- Generator: Adobe Illustrator 20.1.0, SVG Export Plug-In . SVG Version: 6.00 Build 0)  -->
<svg version="1.1" id="Layer_1" xmlns="http://www.w3.org/2000/svg" xmlns:xlink="http://www.w3.org/1999/xlink" x="0px" y="0px"
	 viewBox="0 0 100 100" style="enable-background:new 0 0 100 100;" xml:space="preserve">
<g>
	<path d="M46.5,43.2c-6.3,0-11.5,5.2-11.5,11.5s5.2,11.5,11.5,11.5S58,61,58,54.7S52.8,43.2,46.5,43.2z M46.5,64.2
		c-5.2,0-9.5-4.3-9.5-9.5s4.3-9.5,9.5-9.5s9.5,4.3,9.5,9.5S51.7,64.2,46.5,64.2z"/>
	<path d="M42.4,47.6c-2.5,1.5-4,4.2-4,7.1c0,0.6,0.4,1,1,1s1-0.4,1-1c0-2.2,1.2-4.2,3.1-5.3c0.5-0.3,0.6-0.9,0.4-1.4
		C43.5,47.5,42.9,47.3,42.4,47.6z"/>
	<path d="M74.2,39.8c0-5.1-4.2-9.3-9.3-9.3c-4.5,0-8.3,3.2-9.2,7.5H55v-0.6c0-1.7-1.3-3.4-3-3.4H41c-1.7,0-3,1.7-3,3.4V38h-9
		c-1.7,0-3,1.3-3,3v26c0,1.7,1.3,3,3,3h35c1.7,0,3-1.3,3-3V48.9C71.1,47.9,74.2,44.2,74.2,39.8z M40,37.4c0-0.6,0.4-1.4,1-1.4h11
		c0.6,0,1,0.8,1,1.4V38H40V37.4z M65,67c0,0.6-0.4,1-1,1H29c-0.6,0-1-0.4-1-1V41c0-0.6,0.4-1,1-1h26.5c0.1,5.1,4.2,9.2,9.3,9.2
		c0.1,0,0.1,0,0.2,0V67z M64.8,47.2c-4,0-7.3-3.3-7.3-7.3c0-4,3.3-7.3,7.3-7.3c4,0,7.3,3.3,7.3,7.3C72.2,43.9,68.9,47.2,64.8,47.2z"
		/>
	<path d="M68.5,36.5c-0.4-0.4-1-0.4-1.4,0L65,38.6l-2.1-2.1c-0.4-0.4-1-0.4-1.4,0c-0.4,0.4-0.4,1,0,1.4l2.1,2.1l-2.1,2.1
		c-0.4,0.4-0.4,1,0,1.4s1,0.4,1.4,0l2.1-2.1l2.1,2.1c0.4,0.4,1,0.4,1.4,0s0.4-1,0-1.4L66.4,40l2.1-2.1
		C68.9,37.5,68.9,36.9,68.5,36.5z"/>
</g>
</svg>
