<svg xmlns="http://www.w3.org/2000/svg" viewBox="0 0 362 296.1"><style type="text/css">  
	.st0{fill-rule:evenodd;clip-rule:evenodd;fill:#91D12B;}
</style><path class="st0" d="M212.8 93.7c-10.4-17.6-16.5-39-19.3-59.1h-24.9c-2.1 14.9-6 30.6-12.2 44.9 -1-5.9-1.8-10.4-1.8-10.4l-35 4.4c0 0 1.7 12.1 3.9 22.9 2.2 10.8 0.6 14.5-3.7 15.3 -4.2 0.8-8.5-0.9-9.4-8.7 -0.9-7.8-1.7-13.9-3.4-25.9 -1.7-12.1 3.7-13.5 18.2-15.9 0 0-0.6-15.7-2.6-19.3 -21.1 2-20.7-4.1-21-9.5 -0.2-5.4-0.1-3.6 0.1-13.9 0.2-10.3 11.7-11.4 12-4.1 0.3 7.3 0 17 0 17l35.5-2.3c0 0 1.8-13.8-1-23.8 -0.5-1.9-1.3-3.7-2.2-5.2 8.3 0 16.5 0.3 24.3 1 0.2 6.3 0.1 13.4-0.5 20.7H192c-0.6-7.4-0.7-14.4-0.5-20.7 7-0.6 14.2-0.9 21.6-1C217.6 19.3 220 53.4 212.8 93.7zM0 22.4c8.1-4.2 42.3-12.8 82.6-18C69.2 15.5 68.3 30.3 68.5 35.5c0.3 8.5 0 16.4 13.5 20.7 -14.1 10.8-10 23.4-8.1 41.5 1.2 11.7 5.6 25.9 17.8 33.6 -1 0-2.1 0.1-3.2 0.1C23.6 131.4 3.7 90.6 0 22.4zM148.4 149c-3.8 1.4-3.9-2.2-2.4-4.2 0.9-1.3 4.7-6.8 8.5-11.9 3.1-4.2 6-1.2 6 0.1s0 6.8 0 6.8 0.2 1.3-1.1 2.8C158.2 144 150.8 148.1 148.4 149zM88 184l23.5-36.3 68.1 47.8 68.5-48.2 23.7 37.2 -54.3 38 55.1 38 -24.5 35.5 -68.5-47.8 -69 47 -23.3-35.1 54.4-38.2L88 184zM208.4 132.9c3.8 5.2 7.6 10.7 8.5 11.9 1.5 2 1.4 5.6-2.4 4.2 -2.3-0.9-9.8-5-11-6.5 -1.3-1.5-1.1-2.8-1.1-2.8s0-5.5 0-6.8S205.3 128.6 208.4 132.9zM248.6 43.9c-0.8-8 4.4-10 9.4-9.2 5.1 0.8 13.7 1.4 13.7 1.4L270 19.8c-11.5-3.1-25.2-12.1-33.1-19.3C293.4 3.3 351.2 16.8 362 22.4c-3.7 68.2-23.6 109-88.5 109 -12.9 0-24-3.3-33.4-8.9C247.5 83.7 249.4 51.4 248.6 43.9z"/></svg>