<svg xmlns="http://www.w3.org/2000/svg" viewBox="0 0 513.62 71.37">
  <g id="logo" data-name="Layer 1"><path d="M68,8a16.52,16.52,0,0,0-6.11,1.88c-2.44,1.41-3.57,3.94-4.88,6.85C53.15,25.64,41.32,53.15,34,70.8H30.52c-8.73-24.32-17.37-48-20.47-56.53A7.92,7.92,0,0,0,6.2,9.67,16.66,16.66,0,0,0,0,8V5.92H29.11V8C25.82,8.17,20,9.2,20,11.46a7.48,7.48,0,0,0,.47,2.34c1.41,3.95,8,22.35,15.78,43.39,5.91-14,12.11-28.46,15.11-35.69,2-4.69,2.16-7.32,2.16-8.45,0-3.1-6.47-4.79-10.79-5.07V5.92H68Z"/><path d="M100.1,59.82c-3.29,6.66-9.58,11.36-17.47,11.36-14.18,0-20.75-10.33-20.75-22.73,0-11.26,7.23-22.06,19.72-22.06,12.86,0,17.56,8.45,17.56,18v.84h-28v1c0,12.12,3.94,20.76,14,20.76,7.32,0,9.67-2.63,13.24-8.36ZM90.05,43c0-6.76-1.41-14.46-8.54-14.46-5.92,0-10.05,5.82-10.33,14.65Z"/><path d="M138.41,32.3c0,3.29-1.79,5.92-5,5.92-3,0-5.07-1.32-5.07-4.51,0-.94.66-1.69.66-2.91-4.79,0-8.27,4-9.39,6.1V62.82c0,2.07.84,3.57,2.53,4.23a22.09,22.09,0,0,0,6.11,1.12v1.88H104.42V68.17a17.44,17.44,0,0,0,4.13-.65c1.78-.57,2.53-2.16,2.53-4.23V36.34a6.84,6.84,0,0,0-2.53-5,10,10,0,0,0-4.6-1.5V28.08l15-1,.66.66v6.39h.18c4-5.17,8.74-7.52,12.68-7.52A6.12,6.12,0,0,1,138.41,32.3Z"/><path d="M185,48.36c0,12.49-7.89,23-22.07,23-11.26,0-21.22-8.55-21.22-22.35,0-13.34,8.73-22.63,21.88-22.63S185,35.87,185,48.36Zm-9.48.09c0-9.86-2.91-19.9-12-19.9-9.77,0-12.3,10.8-12.3,19.72,0,11.17,3.47,20.94,12.3,20.94C171.83,69.21,175.5,59.72,175.5,48.45Z"/><path d="M240.85,70.05H218.69V68.17a19.92,19.92,0,0,0,4.41-.65c1.79-.57,2.54-2.16,2.54-4.23V40.66c0-6.48-3.76-10-7.8-10a13.08,13.08,0,0,0-11.73,6.58V62.82a4.2,4.2,0,0,0,2.53,4.23,11.87,11.87,0,0,0,4.42,1.12v1.88H190.89V68.17a17.53,17.53,0,0,0,4.14-.65c1.78-.57,2.53-2.16,2.53-4.23V36.34a6.84,6.84,0,0,0-2.53-5,10,10,0,0,0-4.61-1.5V28.08l15-1,.66.66v6.39h.18c3.57-3.48,7.14-7.7,15.22-7.7,8.73,0,12.77,5.91,12.77,14.83V62.91c0,2.07.75,3.48,2.44,4.23a11.1,11.1,0,0,0,4.13,1Z"/><path d="M267.7,70.05H245.82V68.17a17.53,17.53,0,0,0,4.14-.65c1.78-.57,2.53-2.35,2.53-4.23V36.34A6.21,6.21,0,0,0,250,31.65a14.24,14.24,0,0,0-5.54-1.79V28.08l16-1,.66.66v35a4.41,4.41,0,0,0,2.53,4.32,13.08,13.08,0,0,0,4.13,1.12ZM261.88,8.26A6,6,0,0,1,256,14.37a5.81,5.81,0,0,1-5.73-5.73A5.92,5.92,0,0,1,256,2.72,5.64,5.64,0,0,1,261.88,8.26Z"/><path d="M320.85,70.05H305.92c-2.16-7.23-8.83-20.47-14.93-20.47A5.12,5.12,0,0,0,287,51V62.82c0,2.07.85,3.57,2.54,4.23a13.25,13.25,0,0,0,4.41,1.12v1.88H271.74V68.17a17.36,17.36,0,0,0,4.13-.65c1.79-.57,2.54-2.16,2.54-4.23V9.86a6.77,6.77,0,0,0-2.54-5.45c-1.31-.94-4.6-1.5-6.29-1.59V1L286.3,0l.65.66V48.92c4.23-3.94,11-10.61,14.93-14.83A4.34,4.34,0,0,0,303.1,32c0-1.6-3.38-2.25-5.82-2.53V27.61h18.88v1.78c-5,1.41-9.39,3.76-11.55,5.64-2.54,2.16-5.26,4.6-8.36,7.7,9.48,4.41,12.77,12.86,17.46,21.87a6.25,6.25,0,0,0,3.48,2.82,12.05,12.05,0,0,0,3.66.85Z"/><path d="M365.27,48.36c0,12.49-7.89,23-22.07,23C331.93,71.37,322,62.82,322,49c0-13.34,8.73-22.63,21.88-22.63S365.27,35.87,365.27,48.36Zm-9.49.09c0-9.86-2.91-19.9-12-19.9-9.76,0-12.3,10.8-12.3,19.72,0,11.17,3.48,20.94,12.3,20.94C352.12,69.21,355.78,59.72,355.78,48.45Z"/><path d="M413.9,29.39c-1.78.28-5.91,2.54-7.13,5.26-3.85,8.55-6.86,16.06-11,25.92a77.65,77.65,0,0,0-3.66,10.14h-3.29c-6.57-16.62-8.64-21.32-14.93-36.53-1.13-2.63-4.22-4.22-6.95-4.6v-2H387.8v2.16c-2.16.09-5.35.47-5.35,2a9.93,9.93,0,0,0,.65,2c1.79,4.79,6.48,16.25,10.33,26h.29c3.56-8.54,6.38-14.93,9.95-24.22a8.22,8.22,0,0,0,.47-2.63c-.1-1.88-5.45-3.2-6.95-3.38V27.61H413.9Z"/><path d="M465,70.05H442.82V68.17a20.11,20.11,0,0,0,4.42-.65c1.78-.57,2.53-2.16,2.53-4.23V40.66c0-6.48-3.75-10-7.79-10a13.08,13.08,0,0,0-11.74,6.58V62.82a4.21,4.21,0,0,0,2.54,4.23,11.82,11.82,0,0,0,4.41,1.12v1.88H415V68.17a17.36,17.36,0,0,0,4.13-.65c1.78-.57,2.54-2.16,2.54-4.23V36.34a6.85,6.85,0,0,0-2.54-5,10,10,0,0,0-4.6-1.5V28.08l15-1,.66.66v6.39h.19c3.57-3.48,7.14-7.7,15.21-7.7,8.73,0,12.77,5.91,12.77,14.83V62.91c0,2.07.75,3.48,2.44,4.23a11.15,11.15,0,0,0,4.13,1Z"/><path d="M513.62,58.88c-.56,8.73-4.13,12.11-9.95,12.11-4.41,0-6.76-2-8.26-6.29h-.28a18.2,18.2,0,0,1-13.9,6.48c-6.48,0-10.89-4-10.89-10,0-7.7,4.5-10.32,9.2-12.11,5.35-2.07,11.83-3.66,15.77-5.91V37.94c0-1.69-.28-9.49-8.07-9.49-3.57,0-4.89,2.16-5.73,3.2,0,1.4.84,3.47.84,5.54s-2.06,4-5.44,4c-3.1,0-4.23-2.44-4.23-4.88,0-5.63,8-10,15.12-10,9.3,0,16.15,1.4,16.15,13.89,0,8.27-.47,17.94-.47,21,0,1.41,1.32,4.79,4.42,4.79s3.38-3.66,3.66-7.23Zm-18.21-13c-9.39,2.91-16,5.54-16,13.9,0,5.16,2.35,7.51,6.39,7.51,4.88,0,6.95-2.16,9.2-5Z"/></g></g></svg>
