<?xml version="1.0" encoding="utf-8"?>
<!-- Generator: Adobe Illustrator 23.0.0, SVG Export Plug-In . SVG Version: 6.00 Build 0)  -->
<svg version="1.1" id="Layer_1" xmlns="http://www.w3.org/2000/svg" xmlns:xlink="http://www.w3.org/1999/xlink" x="0px" y="0px"
	 viewBox="0 0 24 24" style="enable-background:new 0 0 24 24;" xml:space="preserve">
<path d="M19,4H5C3.3,4,2,5.3,2,7v10c0,1.7,1.3,3,3,3h14c1.7,0,3-1.3,3-3V7C22,5.3,20.7,4,19,4z M18.5,6L12,11.7L5.5,6H18.5z M19,18
	H5c-0.6,0-1-0.4-1-1V7.3l7,6.2c0.3,0.2,0.6,0.4,1,0.4c0.3,0,0.7-0.1,1-0.4L20,7.3V17C20,17.6,19.6,18,19,18z"/>
</svg>
