<svg xmlns="http://www.w3.org/2000/svg" viewBox="0 0 220 30.57"><title>Asset 1</title><g id="Layer_2" data-name="Layer 2"><g id="Layer_1-2" data-name="Layer 1"><g id="Layer_1-2-2" data-name="Layer 1-2"><path d="M29.13,3.43a7.07,7.07,0,0,0-2.62.8,5.76,5.76,0,0,0-2.09,2.94C22.77,11,17.7,22.77,14.56,30.33H13.07C9.33,19.91,5.63,9.77,4.3,6.11a3.41,3.41,0,0,0-1.64-2A7.06,7.06,0,0,0,0,3.43V2.54H12.47v.89c-1.41.07-3.9.51-3.9,1.48a3.12,3.12,0,0,0,.2,1c.6,1.69,3.42,9.57,6.76,18.59,2.53-6,5.18-12.19,6.47-15.29a9.11,9.11,0,0,0,.92-3.62c0-1.33-2.77-2-4.62-2.17V2.54H29.13Z"/><path d="M42.88,25.62a8.31,8.31,0,0,1-7.49,4.87c-6.07,0-8.88-4.43-8.88-9.74,0-4.82,3.09-9.45,8.44-9.45,5.51,0,7.52,3.62,7.52,7.71v.36h-12v.43c0,5.19,1.69,8.89,6,8.89,3.13,0,4.14-1.12,5.67-3.58Zm-4.31-7.2c0-2.9-.6-6.2-3.66-6.2-2.53,0-4.3,2.5-4.42,6.28Z"/><path d="M59.29,13.84a2.24,2.24,0,0,1-2.15,2.53c-1.28,0-2.17-.56-2.17-1.93,0-.4.28-.72.28-1.25a5,5,0,0,0-4,2.62v11.1a1.76,1.76,0,0,0,1.09,1.81,9.62,9.62,0,0,0,2.61.48V30H44.73v-.8a7.6,7.6,0,0,0,1.77-.28,1.68,1.68,0,0,0,1.08-1.81V15.57a3,3,0,0,0-1.08-2.15,4.37,4.37,0,0,0-2-.64V12L51,11.6l.28.28v2.74h.08C53,12.4,55.05,11.4,56.74,11.4A2.62,2.62,0,0,1,59.29,13.84Z"/><path d="M79.24,20.71c0,5.35-3.38,9.86-9.45,9.86C65,30.57,60.7,26.9,60.7,21c0-5.71,3.74-9.69,9.37-9.69S79.24,15.36,79.24,20.71Zm-4.06,0c0-4.22-1.25-8.52-5.14-8.52-4.18,0-5.27,4.62-5.27,8.45,0,4.78,1.49,9,5.27,9,3.56,0,5.13-4.06,5.13-8.89Z"/><path d="M103.16,30H93.67v-.8a8.63,8.63,0,0,0,1.89-.28,1.68,1.68,0,0,0,1.09-1.81V17.42c0-2.78-1.61-4.29-3.34-4.29a5.62,5.62,0,0,0-5,2.82v11a1.81,1.81,0,0,0,1.09,1.81,5.12,5.12,0,0,0,1.89.48V30h-9.5v-.8a7.68,7.68,0,0,0,1.78-.28,1.68,1.68,0,0,0,1.08-1.81V15.57a3,3,0,0,0-1.08-2.15,4.37,4.37,0,0,0-2-.64V12L88,11.6l.28.28v2.74h.08c1.53-1.49,3.06-3.3,6.52-3.3,3.74,0,5.47,2.53,5.47,6.35V27a1.77,1.77,0,0,0,1,1.81,4.94,4.94,0,0,0,1.77.43Z"/><path d="M114.66,30h-9.37v-.8a7.68,7.68,0,0,0,1.78-.28,1.75,1.75,0,0,0,1.08-1.81V15.57a2.65,2.65,0,0,0-1.07-2,6,6,0,0,0-2.37-.77V12l6.85-.43.29.28v15a1.87,1.87,0,0,0,1.08,1.85,5.48,5.48,0,0,0,1.77.48ZM112.17,3.54a2.57,2.57,0,0,1-2.52,2.62A2.5,2.5,0,0,1,107.2,3.7a2.52,2.52,0,0,1,2.45-2.53,2.41,2.41,0,0,1,2.52,2.31Z"/><path d="M137.43,30H131c-.93-3.09-3.79-8.76-6.4-8.76a2.21,2.21,0,0,0-1.71.6v5.07A1.78,1.78,0,0,0,124,28.72a5.66,5.66,0,0,0,1.89.48V30h-9.52v-.8a7.51,7.51,0,0,0,1.77-.28,1.68,1.68,0,0,0,1.09-1.81V4.22a2.89,2.89,0,0,0-1.09-2.33,6.68,6.68,0,0,0-2.69-.68V.43L122.63,0l.28.28V21c1.81-1.68,4.71-4.54,6.39-6.35a1.85,1.85,0,0,0,.53-.89c0-.69-1.45-1-2.5-1.09v-.79h8.09v.76A14.11,14.11,0,0,0,130.47,15c-1.08.93-2.25,2-3.58,3.3,4.06,1.89,5.47,5.51,7.48,9.37a2.71,2.71,0,0,0,1.49,1.21,5.28,5.28,0,0,0,1.57.36Z"/><path d="M156.46,20.71c0,5.35-3.38,9.86-9.46,9.86-4.82,0-9.08-3.66-9.08-9.58,0-5.72,3.74-9.69,9.37-9.69S156.46,15.36,156.46,20.71Zm-4.07,0c0-4.22-1.24-8.52-5.14-8.52-4.18,0-5.27,4.62-5.27,8.45,0,4.78,1.49,9,5.27,9C150.82,29.64,152.39,25.58,152.39,20.75Z"/><path d="M177.29,12.59a5.06,5.06,0,0,0-3.06,2.25c-1.65,3.66-2.94,6.88-4.71,11.1A33.69,33.69,0,0,0,168,30.29h-1.41c-2.81-7.12-3.7-9.13-6.39-15.65a3.8,3.8,0,0,0-3-2v-.86h8.94v.93c-.93,0-2.29.2-2.29.86a4.2,4.2,0,0,0,.27.85c.77,2.05,2.78,7,4.43,11.14h.12c1.53-3.66,2.74-6.4,4.26-10.38a3.58,3.58,0,0,0,.21-1.12c-.05-.81-2.34-1.37-3-1.45v-.81h7.16Z"/><path d="M199.17,30h-9.5v-.8a8.72,8.72,0,0,0,1.9-.28,1.68,1.68,0,0,0,1.08-1.81V17.42c0-2.78-1.61-4.29-3.34-4.29a5.61,5.61,0,0,0-5,2.82v11a1.81,1.81,0,0,0,1.08,1.81,5.22,5.22,0,0,0,1.89.48V30h-9.5v-.8a7.6,7.6,0,0,0,1.77-.28,1.68,1.68,0,0,0,1.08-1.81V15.57a3,3,0,0,0-1.08-2.15,4.33,4.33,0,0,0-2-.64V12L184,11.6l.28.28v2.74h.09c1.52-1.49,3.05-3.3,6.51-3.3,3.74,0,5.47,2.53,5.47,6.35V27a1.77,1.77,0,0,0,1,1.81,4.84,4.84,0,0,0,1.76.43Z"/><path d="M220,25.22c-.24,3.74-1.77,5.19-4.26,5.19-1.89,0-2.9-.86-3.54-2.7h-.12a7.78,7.78,0,0,1-6,2.78c-2.78,0-4.67-1.71-4.67-4.28,0-3.3,1.93-4.43,3.94-5.19,2.29-.89,5.07-1.57,6.76-2.53V16.25c0-.72-.12-4.06-3.46-4.06a2.8,2.8,0,0,0-2.45,1.37c0,.6.36,1.48.36,2.37s-.89,1.71-2.33,1.71-1.82-1-1.82-2.09c0-2.41,3.43-4.28,6.48-4.28,4,0,6.92.6,6.92,5.95,0,3.54-.2,7.68-.2,9,0,.61.56,2.06,1.89,2.06s1.45-1.57,1.57-3.1Zm-7.8-5.57c-4,1.25-6.85,2.37-6.85,6,0,2.21,1,3.21,2.73,3.21A4.44,4.44,0,0,0,212,26.68Z"/></g></g></g></svg>