<svg id="Layer_1" xmlns="http://www.w3.org/2000/svg" viewBox="0 0 100 100"><style>.st0{fill:#e6eaed}.st1{fill:none;stroke:#12a564;stroke-width:6;stroke-miterlimit:10}.st2{fill:#e0e3e6}.st3,.st4{fill:none;stroke:#2e3236;stroke-width:6;stroke-miterlimit:10}.st4{stroke-linecap:round}</style><path class="st0" d="M71.1 81.5H16.9c-1.3 0-2.4-1.1-2.4-2.4v-3.2c0-1.3 1.1-2.4 2.4-2.4h54.2c1.3 0 2.4 1.1 2.4 2.4v3.2c0 1.3-1.1 2.4-2.4 2.4zm13.4-53H18.3c-1.3 0-2.4-1.1-2.4-2.4v-3.2c0-1.3 1.1-2.4 2.4-2.4h66.2c1.3 0 2.4 1.1 2.4 2.4v3.2c0 1.3-1.1 2.4-2.4 2.4zm-10 18H18.3c-1.3 0-2.4-1.1-2.4-2.4v-3.2c0-1.3 1.1-2.4 2.4-2.4h56.2c1.3 0 2.4 1.1 2.4 2.4v3.2c0 1.3-1.1 2.4-2.4 2.4zm8.6 18H16.9c-1.3 0-2.4-1.1-2.4-2.4v-3.2c0-1.3 1.1-2.4 2.4-2.4h66.2c1.3 0 2.4 1.1 2.4 2.4v3.2c0 1.3-1.1 2.4-2.4 2.4z"/><path class="st1" d="M77.9 58.4l10.9 10.9-10.9 11"/><path class="st2" d="M66.4 29.7h-34c-.8 0 2.5.3 2.5-.5V22c0-.8.7-1.5 1.5-1.5h21c.8 0 1.5.7 1.5 1.5l4 7.3c-.1.8 4.3.4 3.5.4z"/><path class="st0" d="M65.3 49H30.5c-1.2 0-2.2 0-2.2-1.2V37.2c0-1.2 1-2.2 2.2-2.2h32.8c1.2 0 2.2 1 2.2 2.2v10.5c0 1.3 1 1.3-.2 1.3zm-6.9 12.5h-23c-.8 0-1.4-.6-1.4-1.4v-5.3c0-.8-3.4-1.4-2.6-1.4h32c.8 0 1.4.6 1.4 1.4l-5 5.3c0 .8-.7 1.4-1.4 1.4z"/><path class="st1" d="M64.4 58.4L53.5 69.3l10.9 11"/><circle class="st3" cx="48.4" cy="41.5" r="20"/><path class="st4" d="M33 54.4L8.8 76.2"/></svg>