<svg id="Layer_1" xmlns="http://www.w3.org/2000/svg" viewBox="0 0 100 100"><style>.st0{fill:#e6eaed}.st1,.st2{fill:none;stroke-width:6;stroke-miterlimit:10}.st1{stroke-linecap:round;stroke:#12a564}.st2{stroke:#2e3236}</style><path class="st0" d="M71.1 81.5H16.9c-1.3 0-2.4-1.1-2.4-2.4v-3.2c0-1.3 1.1-2.4 2.4-2.4h54.2c1.3 0 2.4 1.1 2.4 2.4v3.2c0 1.3-1.1 2.4-2.4 2.4zm13.4-53H18.3c-1.3 0-2.4-1.1-2.4-2.4v-3.2c0-1.3 1.1-2.4 2.4-2.4h66.2c1.3 0 2.4 1.1 2.4 2.4v3.2c0 1.3-1.1 2.4-2.4 2.4zm-10 18H18.3c-1.3 0-2.4-1.1-2.4-2.4v-3.2c0-1.3 1.1-2.4 2.4-2.4h56.2c1.3 0 2.4 1.1 2.4 2.4v3.2c0 1.3-1.1 2.4-2.4 2.4zm8.6 18H16.9c-1.3 0-2.4-1.1-2.4-2.4v-3.2c0-1.3 1.1-2.4 2.4-2.4h66.2c1.3 0 2.4 1.1 2.4 2.4v3.2c0 1.3-1.1 2.4-2.4 2.4z"/><path class="st1" d="M63.3 65.1s-4.7 8.2-13.6 8.2S36 65.1 36 65.1"/><circle class="st2" cx="30.3" cy="43" r="11.5"/><circle class="st2" cx="69.1" cy="43" r="11.5"/><path class="st2" d="M41.8 43.8h15.8"/></svg>