<svg id="Layer_1" xmlns="http://www.w3.org/2000/svg" viewBox="0 0 100 100"><style>.st0{fill:#e6eaed}.st1{fill:#12a564}.st2,.st3{fill:none;stroke:#2e3236;stroke-width:6;stroke-miterlimit:10}.st3{stroke-linecap:round}</style><path class="st0" d="M71.1 81.5H16.9c-1.3 0-2.4-1.1-2.4-2.4v-3.2c0-1.3 1.1-2.4 2.4-2.4h54.2c1.3 0 2.4 1.1 2.4 2.4v3.2c0 1.3-1.1 2.4-2.4 2.4zm13.4-53H18.3c-1.3 0-2.4-1.1-2.4-2.4v-3.2c0-1.3 1.1-2.4 2.4-2.4h66.2c1.3 0 2.4 1.1 2.4 2.4v3.2c0 1.3-1.1 2.4-2.4 2.4zm-10 18H18.3c-1.3 0-2.4-1.1-2.4-2.4v-3.2c0-1.3 1.1-2.4 2.4-2.4h56.2c1.3 0 2.4 1.1 2.4 2.4v3.2c0 1.3-1.1 2.4-2.4 2.4zm8.6 18H16.9c-1.3 0-2.4-1.1-2.4-2.4v-3.2c0-1.3 1.1-2.4 2.4-2.4h66.2c1.3 0 2.4 1.1 2.4 2.4v3.2c0 1.3-1.1 2.4-2.4 2.4z"/><circle class="st1" cx="16.3" cy="71.5" r="5.5"/><circle class="st1" cx="37.3" cy="45.5" r="5.5"/><circle class="st1" cx="82" cy="33.5" r="5.5"/><path class="st1" d="M18.6 73.4L14 69.6l22.8-28.3 20.6 16.2 24.1-27 4.5 4L71.2 51l-13 14.7-20.4-16z"/><circle class="st2" cx="68.4" cy="64.5" r="15.4"/><path class="st3" d="M68.4 81.5v3.1m0-40.3v4.8m-17 15.4h-3.2m40.3 0h-3m-28 10.9l-3.4 3.3m28.5-28.5l-3.3 3.4m-21.8 0l-3.4-3.4m28.5 28.5l-2.4-2.4"/></svg>