<svg id="Layer_1" xmlns="http://www.w3.org/2000/svg" viewBox="0 0 44 44"><style>.st0{fill:#ff9800}.st1{fill:#2e3236}</style><path class="st0" d="M30.7 38.3c0-.8.7-1.5 1.5-1.5s1.5.7 1.5 1.5-.7 1.5-1.5 1.5c-.9 0-1.5-.7-1.5-1.5zm-4 0c0-.8.7-1.5 1.5-1.5s1.5.7 1.5 1.5-.7 1.5-1.5 1.5c-.9 0-1.5-.7-1.5-1.5zm-4 0c0-.8.7-1.5 1.5-1.5s1.5.7 1.5 1.5-.7 1.5-1.5 1.5c-.9 0-1.5-.7-1.5-1.5zm-4 0c0-.8.7-1.5 1.5-1.5s1.5.7 1.5 1.5-.7 1.5-1.5 1.5c-.9 0-1.5-.7-1.5-1.5zm-4 0c0-.8.7-1.5 1.5-1.5s1.5.7 1.5 1.5-.7 1.5-1.5 1.5c-.9 0-1.5-.7-1.5-1.5zm21.5 1.5c-.2 0-.4 0-.6-.1-.2-.1-.4-.2-.5-.3-.1-.1-.3-.3-.3-.5-.1-.2-.1-.4-.1-.6V38c0-.1 0-.2.1-.3 0-.1.1-.2.1-.3.1-.1.1-.2.2-.2l.2-.2c.1-.1.2-.1.3-.1.1 0 .2-.1.3-.1h.6c.1 0 .2 0 .3.1s.1.1.2.1.2.1.2.2l.2.2c0 .1.1.2.1.3 0 .1.1.2.1.3v.3c0 .2 0 .4-.1.6-.1.2-.2.3-.3.5-.1.1-.3.3-.5.3-.1.1-.3.1-.5.1zm-28 0c-.2 0-.4 0-.6-.1-.2-.1-.4-.2-.5-.3-.1-.2-.2-.4-.3-.5-.1-.2-.1-.4-.1-.6V38c0-.1 0-.2.1-.3 0-.1.1-.2.1-.3.1 0 .1-.1.2-.2l.2-.2c.1-.1.2-.1.3-.1.1 0 .2-.1.3-.1h.6c.1 0 .2 0 .3.1s.1.1.2.1.2.1.2.2l.2.2c0 .1.1.2.1.3 0 .1.1.2.1.3v.3c0 .2 0 .4-.1.6-.1.2-.2.3-.3.5-.1.1-.3.3-.5.3-.1.1-.3.1-.5.1zm-1.5-5.4c0-.8.7-1.5 1.5-1.5s1.5.7 1.5 1.5-.7 1.5-1.5 1.5c-.9 0-1.5-.7-1.5-1.5zm0-3.9c0-.8.7-1.5 1.5-1.5s1.5.7 1.5 1.5c0 .9-.7 1.5-1.5 1.5-.9 0-1.5-.6-1.5-1.5zm0-3.8c0-.8.7-1.5 1.5-1.5s1.5.7 1.5 1.5-.7 1.5-1.5 1.5c-.9 0-1.5-.7-1.5-1.5zm0-3.9c0-.8.7-1.5 1.5-1.5s1.5.7 1.5 1.5-.7 1.5-1.5 1.5c-.9 0-1.5-.7-1.5-1.5zm0-3.9c0-.8.7-1.5 1.5-1.5s1.5.7 1.5 1.5-.7 1.5-1.5 1.5c-.9 0-1.5-.7-1.5-1.5zm0-3.9c0-.8.7-1.5 1.5-1.5s1.5.7 1.5 1.5-.7 1.5-1.5 1.5c-.9 0-1.5-.6-1.5-1.5zm0-3.8c0-.8.7-1.5 1.5-1.5s1.5.7 1.5 1.5-.7 1.5-1.5 1.5c-.9 0-1.5-.7-1.5-1.5zm1.5-2.4c-.2 0-.4 0-.6-.1-.2-.1-.3-.2-.5-.4-.3-.2-.4-.6-.4-1s.2-.8.4-1.1c.6-.6 1.6-.5 2.1 0l.2.2c0 .1.1.2.1.3 0 .1.1.2.1.3v.3c0 .4-.2.8-.4 1.1-.1.1-.3.2-.5.3-.1.1-.3.1-.5.1zm22.5-1.5c0-.8.7-1.5 1.5-1.5s1.5.7 1.5 1.5-.7 1.5-1.5 1.5c-.9 0-1.5-.7-1.5-1.5zm-4 0c0-.8.7-1.5 1.5-1.5s1.5.7 1.5 1.5-.7 1.5-1.5 1.5c-.9 0-1.5-.7-1.5-1.5zm-4 0c0-.8.7-1.5 1.5-1.5s1.5.7 1.5 1.5-.7 1.5-1.5 1.5c-.9 0-1.5-.7-1.5-1.5zm-4 0c0-.8.7-1.5 1.5-1.5s1.5.7 1.5 1.5-.7 1.5-1.5 1.5c-.9 0-1.5-.7-1.5-1.5zm-4 0c0-.8.7-1.5 1.5-1.5s1.5.7 1.5 1.5-.7 1.5-1.5 1.5c-.9 0-1.5-.7-1.5-1.5zm-4 31c0-.8.7-1.5 1.5-1.5s1.5.7 1.5 1.5-.7 1.5-1.5 1.5c-.9 0-1.5-.7-1.5-1.5zm0-31c0-.8.7-1.5 1.5-1.5s1.5.7 1.5 1.5-.7 1.5-1.5 1.5c-.9 0-1.5-.7-1.5-1.5zm25.5 1.5c-.4 0-.8-.1-1.1-.4-.1-.2-.2-.4-.3-.5-.1-.2-.1-.4-.1-.6V7c0-.1 0-.2.1-.3 0-.1.1-.2.1-.3.1 0 .1-.1.2-.2.6-.6 1.6-.5 2.1 0 .3.3.4.7.4 1.1 0 .4-.2.8-.4 1.1-.2.2-.6.4-1 .4zm-1.5 25.6c0-.8.7-1.5 1.5-1.5s1.5.7 1.5 1.5-.7 1.5-1.5 1.5c-.9 0-1.5-.7-1.5-1.5zm0-3.9c0-.8.7-1.5 1.5-1.5s1.5.7 1.5 1.5S37 32 36.2 32c-.9 0-1.5-.6-1.5-1.5zm0-3.8c0-.8.7-1.5 1.5-1.5s1.5.7 1.5 1.5-.7 1.5-1.5 1.5c-.9 0-1.5-.7-1.5-1.5zm0-3.9c0-.8.7-1.5 1.5-1.5s1.5.7 1.5 1.5-.7 1.5-1.5 1.5c-.9 0-1.5-.7-1.5-1.5zm0-3.9c0-.8.7-1.5 1.5-1.5s1.5.7 1.5 1.5-.7 1.5-1.5 1.5c-.9 0-1.5-.7-1.5-1.5zm0-3.9c0-.8.7-1.5 1.5-1.5s1.5.7 1.5 1.5-.7 1.5-1.5 1.5c-.9 0-1.5-.6-1.5-1.5zm0-3.8c0-.8.7-1.5 1.5-1.5s1.5.7 1.5 1.5-.7 1.5-1.5 1.5c-.9 0-1.5-.7-1.5-1.5z"/><path class="st0" d="M8.2 24.3c-.2 0-.4 0-.6-.1-.2-.1-.4-.2-.5-.3-.3-.3-.4-.7-.4-1.1v-.3c0-.1 0-.2.1-.3 0-.1.1-.2.1-.3.1 0 .1-.1.2-.2l.2-.2c.1-.1.2-.1.3-.1.1 0 .2-.1.3-.1h.6c.1 0 .2 0 .3.1s.2.1.3.1c.1 0 .2.1.2.2l.2.2c0 .1.1.2.1.3 0 .1.1.2.1.3v.3c0 .4-.2.8-.4 1.1-.3.2-.7.4-1.1.4zm4 0c-.2 0-.4 0-.6-.1-.2-.1-.4-.2-.5-.3-.3-.3-.4-.7-.4-1.1v-.3c0-.1 0-.2.1-.3 0-.1.1-.2.1-.3.1-.1.1-.2.2-.2l.2-.2c.1-.1.2-.1.3-.1.1 0 .2-.1.3-.1h.6c.1 0 .2 0 .3.1s.2.1.3.1c.1 0 .2.1.2.2l.2.2c0 .1.1.2.1.3 0 .1.1.2.1.3v.3c0 .4-.2.8-.4 1.1-.3.2-.7.4-1.1.4zm18.5-1.5c0-.8.7-1.5 1.5-1.5s1.5.7 1.5 1.5-.7 1.5-1.5 1.5c-.9 0-1.5-.7-1.5-1.5zm5.5 1.5c-.4 0-.8-.1-1.1-.4-.3-.3-.4-.7-.4-1.1v-.3c0-.1 0-.2.1-.3 0-.1.1-.2.1-.3.1-.1.1-.2.2-.2l.2-.2c.1-.1.2-.1.3-.1.1 0 .2-.1.3-.1h.6c.1 0 .2 0 .3.1s.2.1.3.1c.1 0 .2.1.2.2l.2.2c0 .1.1.2.1.3 0 .1.1.2.1.3v.3c0 .4-.2.8-.4 1.1-.3.2-.7.4-1.1.4z"/><path class="st1" d="M15.9 24.5c0-.7.2-1 1-1h.5c-.1-.4-.1-1.1 0-1.6H17c-.7 0-1-.4-1-1s.3-1 1-1h.8c1.1-3.9 4.6-6.7 8.9-6.7.6 0 1.2.1 1.7.1.7.1 1 .6.8 1.3l-.3 1c-.2.7-.5.9-1.1.8-.3-.1-.8-.1-1.2-.1-2.5 0-4.4 1.4-5.2 3.6h5.4c.9 0 1.1.3 1 1-.1.7-.4 1-1.2 1h-5.7c-.1.5-.1 1.1 0 1.6H26c.8 0 1.1.4 1 1-.2.7-.4 1-1.2 1h-4.4c.8 2.2 2.8 3.6 5.2 3.6.5 0 1-.1 1.4-.1.7-.1 1.1.1 1.2.8l.2 1c.1.6-.1 1.1-.8 1.3-.5.1-1.2.2-2 .2-4.5 0-7.8-2.8-8.9-6.8h-.8c-.8 0-1-.4-1-1z"/></svg>