<svg id="Layer_1" xmlns="http://www.w3.org/2000/svg" viewBox="0 0 44 44"><style>.st0{fill:#2e3236}.st1{fill:#ff9800}</style><path class="st0" d="M22.4 25.2c-2.7 0-4.8 2.2-4.8 4.8 0 1.1.4 2.1 1 2.9v10.3l3.8-3.2 3.8 3.2V33c.6-.8 1-1.8 1-2.9.1-2.7-2.1-4.9-4.8-4.9zm0 2c1.6 0 2.8 1.3 2.8 2.8 0 1.6-1.3 2.8-2.8 2.8s-2.8-1.3-2.8-2.8c0-1.5 1.3-2.8 2.8-2.8zm0 10.2L20.6 39v-4.4c.6.2 1.2.4 1.8.4s1.3-.1 1.8-.4V39l-1.8-1.6zm7.5-25.1c-.4-.4-1-.3-1.4.1l-4.7 5.1-2.7-2.7-4.9 5.2c-.4.4-.4 1 0 1.4.2.2.4.3.7.3.3 0 .5-.1.7-.3l3.4-3.7 2.7 2.8 6.1-6.7c.5-.5.5-1.2.1-1.5z"/><path class="st1" d="M42.3 22.4c0-2.3-1.4-4.4-3.8-5.6-.5-.3-1.1-.1-1.3.4-.2.5-.1 1.1.4 1.3 1.7.8 2.7 2.2 2.7 3.8 0 2.2-2.1 4.1-4.8 4.4v-21h-26v11c-4.3.1-7.7 2.9-7.7 6.5 0 2.3 1.4 4.4 3.8 5.6.1.1.3.1.5.1.4 0 .7-.2.9-.5.2-.5.1-1.1-.4-1.3-1.7-.8-2.7-2.2-2.7-3.8 0-2.4 2.6-4.4 5.7-4.5v20H15c.6 0 1-.4 1-1s-.4-1-1-1h-3.6v-29h22v29h-3.6c-.6 0-1 .4-1 1s.4 1 1 1h5.6V29c3.9-.5 6.9-3.2 6.9-6.6z"/></svg>