<?xml version="1.0" encoding="utf-8"?>
<svg version="1.1" id="Layer_1" xmlns="http://www.w3.org/2000/svg" xmlns:xlink="http://www.w3.org/1999/xlink" x="0px" y="0px"
	 viewBox="0 0 108.9 134.3" style="enable-background:new 0 0 108.9 134.3;" xml:space="preserve">
<style type="text/css">
	.st0{fill:#244a7f;}
</style>
<path class="st0" d="M104.8,75.3c-0.8,0.9-1.6,1.8-2.6,2.7c3.9,24.2-12,47.4-36.2,52.4c-18.2,3.7-36-3.9-46.3-17.9
	c9.8,1.3,22.7,0.5,36.6-2.3c2.7-0.6,5.5-1.2,8.3-1.9c8.8-2.3,17.1-5.1,24.6-8.5c0.8-0.3,1.1-1.2,0.8-2c-0.3-0.8-1.2-1.1-2-0.8
	c-7.3,3.3-15.4,6.1-24.1,8.3c-13.2,3.4-26.2,5-36.6,4.7c1.9-0.3,3.8-0.6,5.8-1c9-1.9,19.3-5.2,29.9-9.9c14.1-6.3,26.6-14.1,35.1-22
	c8.9-8.2,12.5-15.7,10.1-21.1c-1.7-3.8-6.2-6.1-13.1-6.7c1,1.1,2,2.2,3,3.4c3.2,0.6,6.2,1.9,7.4,4.5c1.3,2.9-0.1,7.1-3.9,11.8
	c0.4-0.5,0.7-0.9,1-1.4c-8.4-21.9-31.8-35.3-55.5-30.4c-0.3,0.1-0.6,0.2-1,0.2l-1.4-4.6c5.5-5.3,9.3-4.9,13.7-4.5
	c4.3,0.4,9.2,0.9,15.8-3.6l0.9-0.6L68,0l-1.7,1.2C60,5.6,55.2,5.6,50.6,5.7c-4.5,0.1-8.8,0.1-13.1,4.5l-1.4-4.5
	c-0.2-0.8-1.1-1.2-1.9-1c-0.8,0.2-1.2,1.1-1,1.9l11.9,38c-1.4,0.6-2.7,1.4-3.6,2.4c-1.5,1.5-2.1,3.4-1.7,5.1c0.4,1.7,1.9,3,3.9,3.6
	c0.9,0.3,1.9,0.4,2.9,0.4c1.1,0,2.2-0.1,3.3-0.4c2.2-0.6,4.1-1.6,5.4-3c1.5-1.5,2.1-3.4,1.7-5.1c-0.4-1.7-1.9-3-3.9-3.6
	c-1.5-0.5-3.3-0.5-5.1-0.2l-1-3.3c0.2-0.1,0.5-0.1,0.7-0.2c22.9-4.7,45.4,8.6,52.8,30.2c-1.3,1.4-2.7,2.9-4.3,4.5
	c-8.3,7.7-20.5,15.3-34.3,21.4C31.3,109.9,7,110.6,3.5,102.6c-1.4-3.1,0.3-7.6,4.6-12.7c0.2,1.7,0.4,3.5,0.8,5.2
	c0.6,3,1.5,5.9,2.6,8.6c1,0.2,2.1,0.4,3.5,0.5c-1.4-3-2.4-6.3-3.1-9.7c-4.6-22.3,7.9-44.2,28.5-52.1l-0.9-2.9
	C20.3,46.8,7.7,65.3,7.9,85.7c-6.8,7.1-9.3,13.4-7.1,18.2c1.4,3.2,5,5.3,9.9,6.2c0.1,0.1,0.3,0.2,0.5,0.3c1.4,0.5,2.8,0.9,4.4,1.3
	c10.6,16.6,30.7,25.8,51.1,21.6c26.5-5.4,43.6-31.4,38.2-57.8C104.9,75.4,104.9,75.3,104.8,75.3z M50.6,8.7
	c4.2-0.1,9.4-0.1,15.7-3.9l5.3,18.1c-5.2,3.3-9,2.9-12.9,2.5c-4.5-0.4-9.1-0.9-15,4.3l-5.1-16.3C42.3,8.8,45.8,8.7,50.6,8.7z
	 M50.2,46.5c0.7,0,1.4,0.1,2.1,0.3c1,0.3,1.7,0.9,1.9,1.5s-0.2,1.4-0.9,2.2c-0.9,1-2.4,1.8-4,2.2c-1.6,0.4-3.3,0.4-4.6,0.1
	c-1-0.3-1.7-0.9-1.9-1.5c-0.2-0.6,0.2-1.4,0.9-2.2c0.6-0.6,1.4-1.2,2.4-1.6l0.7,2.3c0.2,0.7,1,1.2,1.7,1c0,0,0.1,0,0.1,0
	c0.8-0.2,1.2-1.1,1-1.9l-0.7-2.3C49.4,46.5,49.8,46.5,50.2,46.5z M101.6,69.1c-0.4,0.5-0.7,0.9-1.1,1.4
	C100.8,70,101.2,69.5,101.6,69.1z M8.1,89.9c0.3-0.4,0.7-0.8,1.1-1.2C8.8,89.1,8.4,89.5,8.1,89.9z M9.2,88.6
	c0.4-0.4,0.8-0.9,1.2-1.3C10,87.7,9.6,88.2,9.2,88.6z"/>
</svg>
