<svg id="Layer_1" xmlns="http://www.w3.org/2000/svg" viewBox="0 0 44 44"><style>.st0{fill:#85c75f}.st1{fill:#2e3236}</style><path class="st0" d="M9.1 6.3v23.5c0 .6.4 1 1 1s1-.4 1-1V8.3h22v15.5c0 .6.4 1 1 1s1-.4 1-1V6.3h-26zm25 21.1c-.6 0-1 .4-1 1v8.9h-22v-3.8c0-.6-.4-1-1-1s-1 .4-1 1v5.8h26V28.4c0-.5-.4-1-1-1z"/><path class="st1" d="M22.1 22.6c2.7 0 4.8-2.2 4.8-4.8S24.8 13 22.1 13s-4.8 2.2-4.8 4.8 2.2 4.8 4.8 4.8zm0-7.6c1.6 0 2.8 1.3 2.8 2.8s-1.3 2.8-2.8 2.8-2.8-1.3-2.8-2.8 1.3-2.8 2.8-2.8z"/><path class="st1" d="M40.1 19.1c-.6-1.9-2.3-3.4-4.9-4.3V17c1.6.6 2.7 1.6 3 2.7.8 2.6-2.5 6.6-8.8 9.6-.8-2.8-3.7-5-7.3-5-4.1 0-7.5 2.9-7.5 6.4v2.1c-5.2.1-8.8-1.4-9.4-3.7-.5-1.9.9-4.3 3.9-6.6V20c-4.6 3.1-6.7 6.6-5.8 9.6.9 3.3 5.3 5.1 11.1 5.1 3 0 6.4-.5 9.9-1.5 1.7-.5 3.2-1.1 4.7-1.7h.1c7.5-3.2 12.2-8.2 11-12.4zM23.7 31.4c-2.5.7-4.9 1.2-7.1 1.3v-2c0-2.4 2.5-4.4 5.5-4.4 2.8 0 5 1.7 5.4 3.8-1.1.5-2.4.9-3.8 1.3z"/></svg>