<svg id="Layer_1" xmlns="http://www.w3.org/2000/svg" viewBox="0 0 44 44"><style>.st0{fill:#2e3236}.st1{fill:#ff9800}</style><path class="st0" d="M19.8 20.5c-.2 0-.5-.1-.7-.3-.4-.4-.4-1 0-1.4l3.9-4.1 2 2.1 3.4-3.7c.4-.4 1-.4 1.4-.1s.4 1 .1 1.4L25 19.7l-2-2.1-2.4 2.6c-.2.2-.5.3-.8.3z"/><path class="st1" d="M36.1 7.7C32 5.2 28 6.4 24.2 7.6c-3.6 1.1-7 2-10.3.2V6c0-.6-.4-1-1-1s-1 .4-1 1v26.7c-2.5.4-4.5 2.6-4.5 5.3v1h10.8v-1c0-2.6-1.8-4.7-4.3-5.3v-6.1c1.4.6 2.8.8 4.1.8 2.3 0 4.5-.7 6.8-1.3 3.6-1.1 7-2.1 10.4-.1l1.5.9v-19l-.6-.2zM16 37H9.5c.4-1.4 1.7-2.4 3.2-2.4s2.8 1 3.3 2.4zm18.6-13.4c-3.6-1.4-7.1-.4-10.5.6-3.6 1.1-7 2-10.3.2V9.9c3.7 1.6 7.3.6 10.9-.5 3.4-1 6.7-2 9.9-.4v14.6z"/></svg>