<svg id="Layer_1" xmlns="http://www.w3.org/2000/svg" viewBox="0 0 44 44"><style>.st0{fill:#85c75f}.st1{fill:#2e3236}</style><path class="st0" d="M8.9 28c-.6 0-1-.4-1-1V5.5h26V19c0 .6-.4 1-1 1s-1-.4-1-1V7.5h-22V27c0 .6-.5 1-1 1zm25 10.5h-26v-7.8c0-.6.4-1 1-1s1 .4 1 1v5.8h22V22.6c0-.6.4-1 1-1s1 .4 1 1v15.9z"/><path class="st0" d="M27.8 15.5H14c-.6 0-1-.4-1-1s.4-1 1-1h13.8c.6 0 1 .4 1 1s-.5 1-1 1zm-3.2 7.3H14c-.6 0-1-.4-1-1s.4-1 1-1h10.6c.6 0 1 .4 1 1s-.4 1-1 1zm3.2 7.2H14c-.6 0-1-.4-1-1s.4-1 1-1h13.8c.6 0 1 .4 1 1s-.5 1-1 1z"/><path class="st1" d="M2.9 30c-.4 0-.8-.3-.9-.7-.2-.5.1-1.1.6-1.3l38.3-12.8c.5-.2 1.1.1 1.3.6.2.5-.1 1.1-.6 1.3L3.2 29.9c-.1.1-.2.1-.3.1z"/></svg>